<?xml version="1.0" encoding="UTF-8" ?>
<!DOCTYPE svg PUBLIC "-//W3C//DTD SVG 1.1//EN" "http://www.w3.org/Graphics/SVG/1.1/DTD/svg11.dtd">
<svg width="821pt" height="1219pt" viewBox="0 0 821 1219" version="1.1" xmlns="http://www.w3.org/2000/svg">
<path fill="#ffffff" d=" M 0.00 0.00 L 821.00 0.00 L 821.00 1219.00 L 665.34 1219.00 C 687.11 1187.76 710.25 1157.51 732.91 1126.92 C 744.92 1110.80 756.14 1094.11 767.43 1077.48 C 772.96 1069.35 778.21 1061.01 784.37 1053.34 C 788.64 1047.80 793.19 1041.99 794.42 1034.92 C 795.39 1028.98 794.51 1022.96 794.50 1017.00 C 795.53 976.33 793.84 935.66 793.19 895.00 C 792.41 882.69 792.82 870.33 791.49 858.06 C 790.12 844.31 788.23 830.61 786.26 816.94 C 796.34 808.87 805.47 799.72 814.81 790.83 C 816.51 788.59 820.35 788.06 820.80 785.04 C 819.66 779.06 816.75 773.50 816.30 767.37 C 812.25 725.69 808.57 683.66 797.46 643.14 C 788.73 613.12 776.96 584.08 764.83 555.31 C 756.94 537.03 748.92 518.78 739.66 501.15 C 731.76 486.74 719.61 473.99 703.87 468.36 C 687.86 462.77 670.64 463.50 653.94 463.41 C 635.09 463.48 616.48 467.01 598.04 470.53 C 586.54 472.75 575.51 479.22 563.50 477.25 C 553.68 475.33 544.67 470.66 534.93 468.46 C 532.28 468.02 529.44 468.46 527.28 470.13 C 521.88 474.03 517.21 478.83 512.60 483.62 C 510.18 477.79 508.21 471.79 506.20 465.82 C 506.73 462.04 508.40 458.56 509.44 454.92 C 516.40 431.86 523.94 408.38 523.43 384.02 C 523.56 375.64 522.39 367.31 522.59 358.94 C 524.37 338.33 525.57 317.66 525.87 296.97 C 527.27 262.00 521.65 227.28 515.84 192.90 C 515.22 189.54 514.56 186.18 514.43 182.76 C 518.58 193.94 522.53 205.21 526.07 216.60 C 531.50 234.54 530.42 253.48 530.40 271.98 C 528.56 325.33 525.31 378.62 523.49 431.97 C 522.90 437.95 526.21 445.00 532.45 446.44 C 536.16 447.02 540.45 447.02 543.51 444.52 C 546.01 442.40 546.32 438.90 546.86 435.89 C 548.75 420.16 549.27 404.31 550.38 388.51 C 553.21 336.03 556.28 283.55 558.25 231.02 C 558.60 218.56 554.74 206.55 550.94 194.84 C 543.32 172.52 535.23 150.35 526.79 128.32 C 520.86 113.14 515.01 97.87 507.49 83.39 C 501.04 70.85 494.27 58.47 486.77 46.53 C 483.49 41.47 480.29 36.31 476.19 31.88 C 472.68 27.90 467.08 26.66 461.99 26.82 C 455.62 27.31 449.23 27.57 442.92 28.61 C 432.36 19.23 418.82 13.49 404.89 11.56 C 398.64 10.58 392.55 12.41 386.94 15.00 C 382.00 13.60 377.37 10.52 372.02 10.99 C 363.45 11.81 354.81 13.60 347.05 17.42 C 342.75 16.25 338.28 17.11 333.99 17.81 C 330.61 18.46 327.09 19.99 325.37 23.13 C 322.23 28.54 320.88 34.75 319.52 40.79 C 318.94 40.79 317.79 40.81 317.22 40.82 C 316.68 40.82 315.61 40.81 315.07 40.80 C 316.37 35.62 318.08 30.31 317.28 24.90 C 316.55 20.87 312.50 18.81 308.94 17.77 C 304.22 16.55 298.75 15.90 294.37 18.53 C 291.52 20.57 291.22 24.41 291.10 27.61 C 290.50 27.17 289.32 27.51 290.08 25.92 C 289.83 22.31 288.11 17.99 284.13 17.25 C 278.27 15.97 271.89 17.69 267.03 21.09 C 264.96 22.40 264.10 24.75 263.27 26.93 C 262.01 24.70 260.76 21.84 257.91 21.41 C 251.41 20.37 244.60 23.49 240.45 28.46 C 237.69 31.73 239.06 36.16 239.58 39.95 C 236.92 36.35 234.27 31.15 229.10 31.29 C 223.60 31.44 217.86 34.02 214.71 38.63 C 212.21 43.14 215.95 47.83 218.04 51.74 C 213.44 48.73 208.08 43.89 202.23 46.11 C 195.50 50.22 192.06 57.80 188.45 64.51 C 182.20 63.96 175.40 62.18 169.52 65.26 C 163.40 68.60 159.02 74.22 154.64 79.49 C 145.86 90.60 137.67 102.26 131.05 114.80 C 126.37 123.49 123.03 133.02 122.40 142.93 C 121.64 155.99 122.71 169.06 123.93 182.05 C 124.34 187.21 126.33 192.40 124.86 197.56 C 121.29 215.13 120.07 233.10 120.51 251.00 C 120.51 270.09 121.40 289.17 122.95 308.20 C 126.33 348.86 130.20 389.49 135.10 430.00 C 136.07 439.75 139.16 449.31 144.44 457.60 C 145.86 459.83 148.06 461.88 150.88 461.78 C 154.39 462.16 159.65 460.40 158.86 455.99 C 157.97 444.83 154.87 433.98 153.42 422.89 C 149.85 395.02 146.71 367.08 144.57 339.07 C 152.06 381.11 159.29 423.20 167.29 465.14 C 161.81 478.52 156.20 491.85 150.43 505.10 C 148.06 510.57 144.52 515.47 142.45 521.07 C 140.74 526.06 145.28 533.32 150.98 531.50 C 154.46 529.74 157.03 526.59 159.23 523.43 C 164.21 515.67 168.65 507.59 173.39 499.68 C 176.38 512.71 178.39 525.97 181.76 538.93 C 184.65 549.87 187.52 560.83 191.20 571.55 C 192.40 574.56 193.25 577.95 195.50 580.40 C 199.07 582.57 203.92 581.49 207.13 579.10 C 209.82 577.27 208.75 573.61 208.44 570.94 C 206.29 560.90 203.17 551.08 201.06 541.03 C 197.34 522.25 194.05 503.38 190.67 484.54 C 188.66 477.07 190.80 469.40 191.02 461.85 C 193.09 465.09 193.93 468.88 195.32 472.43 C 200.88 487.40 206.43 502.43 213.32 516.85 C 216.21 523.71 223.12 527.87 229.95 529.99 C 232.14 530.90 234.36 530.07 236.43 529.26 C 236.79 527.37 237.10 525.47 237.42 523.58 C 240.21 526.90 243.43 530.60 247.96 531.29 C 252.39 531.06 256.95 528.31 258.53 524.04 C 258.84 521.18 257.05 518.67 255.90 516.19 C 245.79 497.30 233.99 478.97 228.09 458.18 C 222.59 440.62 221.07 422.21 218.76 404.05 C 216.77 383.78 215.73 363.42 215.31 343.07 C 221.08 349.35 226.62 355.83 232.02 362.43 C 232.91 363.77 233.31 365.34 233.39 366.94 C 235.83 392.09 240.10 417.03 245.07 441.79 C 249.39 463.24 255.30 484.37 262.88 504.90 C 268.57 520.29 274.36 535.70 281.59 550.46 C 283.83 556.52 293.50 557.49 296.92 552.04 C 299.63 547.66 300.91 542.11 299.24 537.11 C 295.41 524.21 290.36 511.70 286.47 498.81 C 278.79 472.69 272.40 446.20 265.18 419.96 C 276.76 433.62 288.44 447.39 302.44 458.67 C 322.56 475.14 346.90 484.99 370.41 495.49 C 372.00 499.71 373.97 503.82 375.15 508.18 C 375.25 520.80 368.27 532.00 360.16 541.14 C 353.69 549.42 344.85 555.40 335.88 560.68 C 330.62 564.06 324.89 566.67 319.13 569.09 C 318.16 567.05 314.00 563.43 314.31 567.92 C 322.36 579.30 332.37 589.32 343.99 597.08 C 354.68 604.64 366.23 611.28 378.83 615.04 C 397.72 620.17 417.76 620.47 437.03 617.44 C 451.63 615.20 465.50 608.42 476.01 598.02 C 483.05 591.03 489.96 583.76 495.45 575.46 C 500.60 567.62 504.09 558.87 508.28 550.51 C 516.62 534.18 523.97 517.36 531.35 500.58 C 534.30 493.46 538.15 486.47 538.67 478.62 C 537.70 478.58 536.74 478.55 535.78 478.53 C 534.44 486.93 530.32 494.45 527.17 502.25 C 526.60 503.25 526.40 504.63 525.22 505.14 C 519.83 500.38 516.40 493.81 514.15 487.08 C 517.32 482.98 521.57 479.79 525.48 476.40 C 528.17 474.27 531.24 471.56 534.97 472.50 C 542.39 474.23 549.69 476.50 556.75 479.34 C 562.24 482.05 567.73 484.79 573.19 487.57 C 573.59 487.49 574.40 487.31 574.80 487.22 C 571.57 485.06 568.32 482.93 565.07 480.79 C 578.07 481.45 589.51 474.17 601.99 471.86 C 614.87 469.48 627.86 467.55 640.93 466.61 C 655.29 465.90 669.72 466.37 684.00 468.13 C 700.23 470.14 716.42 477.17 727.09 489.90 C 735.50 498.85 740.11 510.41 745.53 521.24 C 761.73 556.05 776.69 591.49 789.03 627.85 C 798.78 655.96 803.42 685.50 807.14 714.92 C 809.31 732.22 810.84 749.59 812.44 766.95 C 812.88 773.02 815.36 778.67 817.50 784.30 C 814.35 785.68 811.93 788.14 809.64 790.64 C 794.96 806.00 779.04 820.14 762.35 833.27 C 751.06 841.78 739.01 849.41 725.99 854.99 C 711.52 861.29 696.66 866.73 681.54 871.23 C 678.17 872.11 674.48 873.56 671.13 871.79 C 664.16 868.24 656.33 867.28 648.85 865.31 C 632.78 861.45 616.69 857.66 600.78 853.16 C 598.60 852.48 596.28 851.92 594.50 850.44 C 591.53 848.12 590.36 843.62 592.26 840.29 C 596.25 832.40 597.41 823.52 599.79 815.10 C 603.56 798.87 607.72 782.65 609.14 766.01 C 610.78 747.71 611.40 729.35 611.68 710.99 C 611.63 704.50 612.89 698.02 612.05 691.54 C 611.51 691.53 610.43 691.52 609.89 691.51 C 609.36 705.47 609.49 719.48 607.97 733.39 C 605.32 730.98 604.18 727.47 602.26 724.54 C 599.03 719.45 596.47 713.97 593.14 708.96 C 595.58 714.45 598.85 719.51 601.27 725.02 C 603.77 730.80 607.76 736.38 607.30 742.99 C 606.75 768.82 602.72 794.54 596.16 819.51 C 594.36 825.87 593.55 832.64 590.27 838.48 C 588.99 840.90 587.59 843.70 588.65 846.49 C 590.16 850.58 593.72 853.81 597.97 854.90 C 611.10 858.77 624.34 862.31 637.58 865.81 C 647.39 905.95 657.48 946.03 667.35 986.16 C 667.46 987.75 668.64 989.81 667.10 991.06 C 663.76 994.43 659.69 997.03 656.66 1000.72 C 644.30 1014.82 631.98 1029.54 624.85 1047.10 C 616.31 1067.14 608.94 1087.67 601.07 1107.99 C 586.88 1144.53 575.51 1182.06 562.44 1219.00 L 244.58 1219.00 C 243.31 1217.40 242.49 1215.36 243.59 1213.45 C 257.21 1180.74 272.17 1148.61 285.63 1115.84 C 287.50 1110.36 291.18 1104.93 290.29 1098.95 C 287.48 1092.90 282.53 1088.06 279.93 1081.92 C 278.45 1078.26 280.99 1074.81 283.19 1072.13 C 289.37 1065.26 293.81 1056.90 296.73 1048.18 C 293.32 1047.79 292.90 1051.85 291.40 1053.93 C 282.59 1030.54 274.23 1006.96 264.23 984.05 C 249.55 950.05 234.63 916.15 219.48 882.36 C 211.97 866.18 205.42 849.43 195.38 834.59 C 190.34 827.31 186.19 819.29 180.14 812.79 C 180.37 816.40 183.25 818.94 184.87 821.99 C 186.14 823.90 186.47 826.41 188.32 827.93 C 200.62 846.60 208.96 867.43 218.11 887.73 C 232.85 921.40 247.69 955.04 261.77 988.99 C 254.37 991.58 247.04 994.49 239.38 996.24 C 230.04 997.99 220.48 997.87 211.06 998.96 C 209.41 999.23 207.71 999.50 206.19 1000.25 C 203.41 1001.65 202.17 1004.91 199.56 1006.49 C 195.71 1007.08 191.79 1006.51 187.93 1006.27 C 170.61 1004.46 153.34 1001.72 136.53 997.15 C 119.80 992.42 104.00 984.82 89.21 975.76 C 78.83 969.14 68.22 962.35 60.29 952.76 C 53.34 944.89 47.72 936.00 41.70 927.43 C 39.49 923.95 37.11 920.55 35.33 916.83 C 40.76 905.74 47.10 895.03 52.55 883.91 C 71.84 846.45 86.76 806.96 100.44 767.17 C 106.35 749.59 111.62 731.80 116.98 714.05 C 119.06 707.01 121.66 700.12 123.34 692.96 C 124.73 686.87 126.90 680.76 131.19 676.08 C 138.73 668.05 149.54 664.55 158.48 658.45 C 173.87 648.06 189.35 637.78 205.20 628.11 C 233.38 610.79 263.50 596.97 293.02 582.15 C 298.21 579.49 301.28 574.28 304.94 569.97 C 308.95 565.12 312.50 559.85 316.84 555.30 C 321.64 557.07 325.18 560.99 329.41 563.72 C 329.74 563.50 330.41 563.06 330.74 562.83 C 330.84 562.48 331.03 561.77 331.12 561.42 C 327.89 558.41 324.31 555.75 320.57 553.42 C 318.53 552.00 315.32 551.58 313.64 553.75 C 307.62 560.74 302.35 568.34 296.47 575.46 C 293.53 579.11 289.16 581.09 285.09 583.17 C 262.49 593.99 239.79 604.63 217.78 616.62 C 195.13 628.94 173.30 642.70 151.61 656.61 C 142.60 662.31 132.14 666.70 125.88 675.76 C 121.01 682.19 119.67 690.28 117.57 697.85 C 110.76 719.21 105.07 740.90 98.18 762.23 C 91.95 781.30 85.39 800.28 78.41 819.09 C 72.17 835.49 65.86 851.93 57.68 867.48 C 49.52 883.18 40.75 898.55 31.80 913.81 C 30.37 915.85 32.31 918.03 33.16 919.88 C 37.54 928.11 42.64 935.96 48.73 943.03 C 43.81 960.32 38.48 977.50 34.66 995.08 C 25.68 1032.88 18.87 1071.15 12.83 1109.52 C 11.14 1121.30 9.23 1133.08 8.36 1144.96 C 7.73 1151.79 9.39 1158.58 12.04 1164.84 C 15.38 1172.43 18.19 1180.71 24.55 1186.41 C 31.16 1192.04 38.88 1196.15 45.82 1201.36 C 53.57 1207.25 61.37 1213.09 69.11 1219.00 L 0.00 1219.00 L 0.00 0.00 Z" />
<path fill="#111725" d=" M 347.05 17.42 C 354.81 13.60 363.45 11.81 372.02 10.99 C 377.37 10.52 382.00 13.60 386.94 15.00 C 392.55 12.41 398.64 10.58 404.89 11.56 C 418.82 13.49 432.36 19.23 442.92 28.61 C 449.23 27.57 455.62 27.31 461.99 26.82 C 467.08 26.66 472.68 27.90 476.19 31.88 C 480.29 36.31 483.49 41.47 486.77 46.53 C 494.27 58.47 501.04 70.85 507.49 83.39 C 515.01 97.87 520.86 113.14 526.79 128.32 C 535.23 150.35 543.32 172.52 550.94 194.84 C 554.74 206.55 558.60 218.56 558.25 231.02 C 556.28 283.55 553.21 336.03 550.38 388.51 C 549.27 404.31 548.75 420.16 546.86 435.89 C 546.32 438.90 546.01 442.40 543.51 444.52 C 540.45 447.02 536.16 447.02 532.45 446.44 C 526.21 445.00 522.90 437.95 523.49 431.97 C 525.31 378.62 528.56 325.33 530.40 271.98 C 530.42 253.48 531.50 234.54 526.07 216.60 C 522.53 205.21 518.58 193.94 514.43 182.76 C 514.56 186.18 515.22 189.54 515.84 192.90 C 521.65 227.28 527.27 262.00 525.87 296.97 C 525.57 317.66 524.37 338.33 522.59 358.94 C 522.39 367.31 523.56 375.64 523.43 384.02 C 523.94 408.38 516.40 431.86 509.44 454.92 C 508.40 458.56 506.73 462.04 506.20 465.82 C 504.93 466.23 503.66 466.64 502.40 467.05 C 502.29 466.66 502.05 465.88 501.94 465.49 C 503.18 463.75 504.11 461.79 504.66 459.72 C 512.10 435.08 520.76 410.12 520.28 384.05 C 519.88 364.31 518.31 344.62 516.61 324.96 C 512.22 274.21 507.83 223.40 499.80 173.06 C 496.77 154.95 493.23 136.93 489.57 118.94 C 487.24 107.06 481.91 95.34 472.38 87.54 C 470.18 85.92 467.63 84.89 465.16 83.78 C 452.68 78.37 439.94 73.60 427.24 68.77 C 424.53 67.44 421.65 68.74 419.07 69.68 C 417.76 70.19 416.46 70.70 415.16 71.22 C 414.36 70.74 413.57 70.26 412.78 69.78 C 413.21 69.05 414.07 67.59 414.50 66.86 L 415.40 67.30 C 429.04 63.29 442.75 58.85 457.00 57.70 C 462.64 56.99 468.06 60.23 471.08 64.85 C 475.23 71.10 477.13 78.48 480.52 85.13 C 488.68 104.33 495.91 123.92 503.34 143.41 C 511.84 166.23 520.42 189.03 527.98 212.18 C 531.16 221.51 532.68 231.31 533.32 241.12 C 534.39 271.44 532.29 301.72 531.01 331.99 C 529.51 365.31 527.73 398.61 526.66 431.94 C 526.11 436.74 528.60 442.86 533.94 443.54 C 537.12 443.98 541.75 443.62 542.80 439.93 C 544.57 433.42 544.40 426.58 545.28 419.93 C 548.64 365.99 551.46 312.02 554.04 258.04 C 554.54 248.01 554.84 237.97 554.90 227.94 C 555.04 217.63 551.69 207.75 548.69 198.03 C 541.91 177.86 534.60 157.89 527.12 137.98 C 519.80 118.99 512.72 99.82 503.15 81.81 C 495.67 67.56 487.91 53.39 478.76 40.13 C 475.92 36.26 473.05 31.56 467.95 30.56 C 462.34 29.63 456.64 30.46 451.01 30.74 C 439.96 32.26 428.93 34.00 417.97 36.09 C 403.05 38.97 387.67 41.06 373.96 48.01 C 372.38 48.05 370.99 47.38 369.76 46.44 C 379.59 41.20 390.48 38.05 401.41 35.99 C 413.49 33.53 425.65 31.48 437.78 29.30 L 437.98 28.93 C 432.63 23.77 425.67 20.67 418.75 18.20 C 409.54 14.90 398.53 12.17 389.55 17.53 C 377.53 24.57 367.00 33.84 356.64 43.07 C 355.72 43.83 354.80 44.57 353.87 45.30 C 352.90 45.16 351.93 45.02 350.97 44.89 C 351.70 44.08 352.41 43.26 353.12 42.43 C 362.11 32.82 373.03 25.21 383.37 17.12 C 380.07 15.73 376.71 14.11 373.04 14.20 C 366.49 14.29 360.09 16.02 353.86 17.90 C 350.31 18.92 347.12 21.03 344.95 24.04 C 340.65 29.88 335.65 35.16 330.74 40.48 C 329.63 41.44 328.44 42.32 327.09 42.90 C 326.24 42.29 326.39 41.35 326.57 40.48 C 332.35 33.68 338.80 27.46 343.91 20.11 C 338.81 20.41 332.67 19.86 328.77 23.79 C 325.27 28.70 324.21 34.82 322.77 40.56 C 322.60 41.27 322.43 41.98 322.27 42.69 C 322.72 42.99 323.60 43.59 324.04 43.89 C 322.63 44.00 321.23 44.10 319.83 44.20 C 319.70 43.06 319.60 41.92 319.52 40.79 C 320.88 34.75 322.23 28.54 325.37 23.13 C 327.09 19.99 330.61 18.46 333.99 17.81 C 338.28 17.11 342.75 16.25 347.05 17.42 Z" />
<path fill="#ffffff" d=" M 353.86 17.90 C 360.09 16.02 366.49 14.29 373.04 14.20 C 376.71 14.11 380.07 15.73 383.37 17.12 C 373.03 25.21 362.11 32.82 353.12 42.43 C 345.71 41.28 338.22 40.71 330.74 40.48 C 335.65 35.16 340.65 29.88 344.95 24.04 C 347.12 21.03 350.31 18.92 353.86 17.90 Z" />
<path fill="#ffffff" d=" M 389.55 17.53 C 398.53 12.17 409.54 14.90 418.75 18.20 C 425.67 20.67 432.63 23.77 437.98 28.93 L 437.78 29.30 C 425.65 31.48 413.49 33.53 401.41 35.99 C 390.48 38.05 379.59 41.20 369.76 46.44 C 365.55 44.77 361.04 44.05 356.64 43.07 C 367.00 33.84 377.53 24.57 389.55 17.53 Z" />
<path fill="#111725" d=" M 267.03 21.09 C 271.89 17.69 278.27 15.97 284.13 17.25 C 288.11 17.99 289.83 22.31 290.08 25.92 C 289.32 27.51 290.50 27.17 291.10 27.61 C 291.22 24.41 291.52 20.57 294.37 18.53 C 298.75 15.90 304.22 16.55 308.94 17.77 C 312.50 18.81 316.55 20.87 317.28 24.90 C 318.08 30.31 316.37 35.62 315.07 40.80 C 315.61 40.81 316.68 40.82 317.22 40.82 C 315.74 41.61 314.30 42.47 312.86 43.32 C 312.39 42.81 311.44 41.79 310.97 41.28 C 313.59 37.49 313.76 32.47 314.40 28.03 C 315.04 24.55 312.23 21.96 309.15 21.13 C 304.87 19.85 299.51 18.74 295.64 21.56 C 292.74 28.18 293.66 35.81 294.32 42.84 C 294.41 44.18 294.48 45.53 294.53 46.87 C 293.98 46.96 292.89 47.12 292.35 47.21 C 291.00 45.99 289.65 44.77 288.30 43.56 C 288.16 35.91 288.50 27.84 285.19 20.74 C 279.43 18.98 272.82 20.40 268.20 24.23 C 265.73 26.55 266.88 30.27 267.34 33.17 C 268.26 37.43 269.61 41.59 271.14 45.66 C 271.35 46.03 271.78 46.75 271.99 47.12 C 270.81 50.09 266.51 49.70 265.85 46.58 C 264.34 39.73 262.86 32.70 259.46 26.49 C 257.92 23.20 253.64 24.27 250.87 25.09 C 247.14 26.59 242.38 28.80 241.86 33.30 C 242.15 39.04 244.47 44.44 246.67 49.68 C 247.04 49.72 247.78 49.80 248.15 49.84 C 247.07 51.23 246.28 53.59 244.07 53.10 C 243.53 52.64 242.46 51.72 241.92 51.27 C 239.35 45.97 236.74 40.56 232.77 36.15 C 230.23 33.19 225.82 34.57 222.80 35.97 C 220.12 37.33 216.25 39.42 217.28 43.06 C 218.63 47.79 221.95 51.61 224.77 55.54 C 224.98 56.35 225.40 57.97 225.61 58.78 C 223.79 59.23 221.99 59.67 220.17 60.09 C 220.27 59.64 220.47 58.73 220.57 58.28 C 220.23 57.98 219.54 57.37 219.19 57.06 C 215.28 53.64 211.16 50.03 206.04 48.67 C 203.72 48.09 201.94 49.96 200.46 51.43 C 196.91 55.25 194.38 59.87 192.00 64.47 C 197.37 65.16 202.76 65.78 208.14 66.39 C 207.72 68.14 206.42 69.11 204.83 69.76 C 197.05 67.41 188.77 67.96 180.79 66.81 C 176.54 66.13 171.95 66.79 168.54 69.56 C 161.85 74.88 156.72 81.84 151.58 88.59 C 143.38 99.78 135.57 111.40 130.08 124.19 C 124.33 137.31 124.84 151.98 125.75 165.96 C 126.41 172.35 126.34 178.82 127.71 185.12 C 129.43 176.96 132.02 169.03 134.44 161.06 C 139.69 144.54 145.33 128.11 152.25 112.21 C 155.74 103.67 163.16 97.44 171.09 93.12 C 175.49 90.68 180.67 91.41 185.48 91.31 C 185.42 92.27 185.36 93.23 185.30 94.20 C 184.73 94.26 183.58 94.37 183.01 94.43 C 179.36 94.51 175.46 94.17 172.20 96.16 C 164.94 100.24 158.11 106.05 154.97 113.97 C 149.39 126.75 144.78 139.93 140.35 153.15 C 134.49 171.09 128.97 189.26 126.22 207.98 C 122.03 234.20 123.80 260.85 124.62 287.25 C 127.81 333.91 132.48 380.48 137.85 426.95 C 138.84 437.32 141.54 447.75 147.48 456.44 C 149.04 459.32 153.09 459.18 155.54 457.64 C 156.00 455.48 155.53 453.26 155.27 451.11 C 153.55 441.05 151.34 431.07 149.98 420.95 C 146.12 390.69 143.06 360.34 140.50 329.95 C 137.25 294.94 141.29 259.82 145.64 225.10 C 147.13 213.31 150.14 201.80 152.58 190.19 C 154.64 180.93 156.69 171.66 159.07 162.47 C 159.33 161.86 159.87 160.64 160.14 160.02 C 160.81 160.09 162.14 160.23 162.80 160.30 C 161.69 165.54 160.06 170.67 159.32 175.99 C 161.17 172.72 163.23 169.57 165.51 166.58 C 166.05 166.94 167.14 167.66 167.68 168.01 C 166.93 169.34 166.18 170.66 165.43 171.99 C 162.88 176.27 159.97 180.40 158.26 185.12 C 154.75 194.84 152.66 205.00 150.81 215.16 C 148.80 226.67 146.66 238.35 147.81 250.08 C 149.95 272.35 153.98 294.37 157.92 316.37 C 164.47 350.62 171.23 384.90 180.79 418.47 C 189.22 446.93 199.05 474.99 210.31 502.45 C 212.73 507.98 214.90 513.68 218.04 518.86 C 221.85 523.60 227.71 526.58 233.69 527.48 C 233.85 524.93 233.70 522.35 232.82 519.94 C 226.42 500.29 217.48 481.60 210.65 462.11 C 206.47 450.42 203.85 438.27 200.86 426.25 C 192.42 390.90 184.47 355.43 176.60 319.95 C 172.53 301.28 168.35 282.64 164.63 263.90 C 162.51 250.43 158.87 236.75 161.52 223.08 C 164.36 208.54 169.99 194.74 175.21 180.92 C 175.78 179.47 176.37 178.03 176.84 176.54 C 178.08 171.56 180.23 166.88 182.72 162.41 C 183.40 162.46 184.77 162.55 185.46 162.60 C 187.51 158.69 187.40 154.16 188.87 150.06 C 191.69 141.69 196.17 134.02 200.68 126.47 C 201.69 124.73 203.95 123.90 204.48 121.86 C 206.23 112.27 213.62 104.93 221.14 99.33 C 223.13 97.50 225.58 98.38 227.71 99.38 C 227.96 100.16 228.21 100.94 228.45 101.73 C 226.29 103.24 227.67 105.91 228.00 107.96 C 230.30 116.91 232.10 125.97 234.16 134.98 C 238.24 152.81 247.94 168.65 253.34 186.04 C 253.93 188.44 254.27 191.38 252.59 193.44 C 248.90 198.15 241.53 199.89 236.37 196.57 C 230.78 193.00 226.27 187.93 222.39 182.60 C 210.84 166.62 206.96 146.78 204.57 127.62 C 203.90 134.83 205.26 142.00 206.21 149.12 C 207.77 160.07 213.48 169.76 218.83 179.23 C 221.21 183.50 225.11 186.71 227.29 191.10 C 228.81 194.45 227.25 198.34 224.62 200.64 C 219.63 205.71 211.36 205.72 205.27 202.78 C 201.04 200.81 198.26 196.85 196.06 192.90 C 191.57 184.46 188.71 175.25 187.07 165.85 C 187.02 166.91 186.37 167.86 186.66 168.94 C 187.97 179.46 191.87 189.59 197.64 198.45 C 200.22 202.37 204.28 205.21 206.27 209.52 C 207.30 213.68 207.12 218.71 204.18 222.10 C 202.26 224.61 198.68 224.00 196.01 223.35 C 191.99 222.01 187.66 220.31 185.20 216.62 C 181.57 211.40 178.59 205.73 176.30 199.79 C 176.57 208.18 181.78 215.63 188.12 220.75 C 191.19 223.38 195.56 224.20 198.43 226.90 C 198.75 231.13 198.55 236.14 195.13 239.16 C 191.88 242.76 185.92 244.28 181.86 241.13 C 177.34 238.32 174.70 233.62 171.32 229.68 C 172.79 233.27 174.62 236.87 177.50 239.54 C 181.14 242.73 186.72 242.49 190.05 246.06 C 192.86 250.49 191.02 256.03 189.89 260.72 C 189.51 263.16 187.18 264.04 185.15 264.80 C 183.91 264.17 182.66 263.55 181.43 262.91 C 176.01 260.00 171.46 255.58 168.70 250.06 C 169.21 258.01 169.49 265.98 169.95 273.92 C 178.98 316.52 188.41 359.05 198.40 401.44 C 198.71 377.86 197.51 354.21 193.99 330.87 C 191.44 314.19 189.08 297.46 185.49 280.97 C 186.34 280.80 188.03 280.47 188.88 280.30 C 189.96 284.33 191.00 288.37 192.02 292.42 C 191.78 293.78 191.36 295.16 191.64 296.56 C 192.42 301.32 193.08 306.12 194.36 310.79 C 195.89 323.23 198.17 335.57 199.43 348.05 C 201.71 370.58 201.81 393.27 201.79 415.90 C 204.02 426.30 206.67 436.62 209.31 446.92 C 214.67 467.41 224.07 486.47 231.66 506.16 C 234.04 514.42 238.67 522.27 245.80 527.28 C 249.65 529.29 253.65 526.33 255.75 523.18 C 246.08 503.08 233.01 484.50 226.31 463.04 C 221.68 449.06 219.18 434.50 217.55 419.90 C 213.97 393.21 212.48 366.27 212.22 339.36 C 212.90 339.31 214.27 339.21 214.95 339.15 C 215.09 340.45 215.21 341.76 215.31 343.07 C 215.73 363.42 216.77 383.78 218.76 404.05 C 221.07 422.21 222.59 440.62 228.09 458.18 C 233.99 478.97 245.79 497.30 255.90 516.19 C 257.05 518.67 258.84 521.18 258.53 524.04 C 256.95 528.31 252.39 531.06 247.96 531.29 C 243.43 530.60 240.21 526.90 237.42 523.58 C 237.10 525.47 236.79 527.37 236.43 529.26 C 234.36 530.07 232.14 530.90 229.95 529.99 C 223.12 527.87 216.21 523.71 213.32 516.85 C 206.43 502.43 200.88 487.40 195.32 472.43 C 193.93 468.88 193.09 465.09 191.02 461.85 C 190.80 469.40 188.66 477.07 190.67 484.54 C 194.05 503.38 197.34 522.25 201.06 541.03 C 203.17 551.08 206.29 560.90 208.44 570.94 C 208.75 573.61 209.82 577.27 207.13 579.10 C 203.92 581.49 199.07 582.57 195.50 580.40 C 193.25 577.95 192.40 574.56 191.20 571.55 C 187.52 560.83 184.65 549.87 181.76 538.93 C 178.39 525.97 176.38 512.71 173.39 499.68 C 168.65 507.59 164.21 515.67 159.23 523.43 C 157.03 526.59 154.46 529.74 150.98 531.50 C 145.28 533.32 140.74 526.06 142.45 521.07 C 144.52 515.47 148.06 510.57 150.43 505.10 C 156.20 491.85 161.81 478.52 167.29 465.14 C 159.29 423.20 152.06 381.11 144.57 339.07 C 146.71 367.08 149.85 395.02 153.42 422.89 C 154.87 433.98 157.97 444.83 158.86 455.99 C 159.65 460.40 154.39 462.16 150.88 461.78 C 148.06 461.88 145.86 459.83 144.44 457.60 C 139.16 449.31 136.07 439.75 135.10 430.00 C 130.20 389.49 126.33 348.86 122.95 308.20 C 121.40 289.17 120.51 270.09 120.51 251.00 C 120.07 233.10 121.29 215.13 124.86 197.56 C 126.33 192.40 124.34 187.21 123.93 182.05 C 122.71 169.06 121.64 155.99 122.40 142.93 C 123.03 133.02 126.37 123.49 131.05 114.80 C 137.67 102.26 145.86 90.60 154.64 79.49 C 159.02 74.22 163.40 68.60 169.52 65.26 C 175.40 62.18 182.20 63.96 188.45 64.51 C 192.06 57.80 195.50 50.22 202.23 46.11 C 208.08 43.89 213.44 48.73 218.04 51.74 C 215.95 47.83 212.21 43.14 214.71 38.63 C 217.86 34.02 223.60 31.44 229.10 31.29 C 234.27 31.15 236.92 36.35 239.58 39.95 C 239.06 36.16 237.69 31.73 240.45 28.46 C 244.60 23.49 251.41 20.37 257.91 21.41 C 260.76 21.84 262.01 24.70 263.27 26.93 C 264.10 24.75 264.96 22.40 267.03 21.09 Z" />
<path fill="#ffffff" d=" M 268.20 24.23 C 272.82 20.40 279.43 18.98 285.19 20.74 C 288.50 27.84 288.16 35.91 288.30 43.56 C 282.59 44.34 276.91 45.46 271.14 45.66 C 269.61 41.59 268.26 37.43 267.34 33.17 C 266.88 30.27 265.73 26.55 268.20 24.23 Z" />
<path fill="#ffffff" d=" M 295.64 21.56 C 299.51 18.74 304.87 19.85 309.15 21.13 C 312.23 21.96 315.04 24.55 314.40 28.03 C 313.76 32.47 313.59 37.49 310.97 41.28 C 305.39 41.46 299.86 42.23 294.32 42.84 C 293.66 35.81 292.74 28.18 295.64 21.56 Z" />
<path fill="#ffffff" d=" M 328.77 23.79 C 332.67 19.86 338.81 20.41 343.91 20.11 C 338.80 27.46 332.35 33.68 326.57 40.48 C 325.30 40.50 324.03 40.53 322.77 40.56 C 324.21 34.82 325.27 28.70 328.77 23.79 Z" />
<path fill="#ffffff" d=" M 250.87 25.09 C 253.64 24.27 257.92 23.20 259.46 26.49 C 262.86 32.70 264.34 39.73 265.85 46.58 C 259.91 47.44 254.03 48.67 248.15 49.84 C 247.78 49.80 247.04 49.72 246.67 49.68 C 244.47 44.44 242.15 39.04 241.86 33.30 C 242.38 28.80 247.14 26.59 250.87 25.09 Z" />
<path fill="#ffffff" d=" M 417.97 36.09 C 428.93 34.00 439.96 32.26 451.01 30.74 C 456.64 30.46 462.34 29.63 467.95 30.56 C 473.05 31.56 475.92 36.26 478.76 40.13 C 487.91 53.39 495.67 67.56 503.15 81.81 C 512.72 99.82 519.80 118.99 527.12 137.98 C 534.60 157.89 541.91 177.86 548.69 198.03 C 551.69 207.75 555.04 217.63 554.90 227.94 C 554.84 237.97 554.54 248.01 554.04 258.04 C 551.46 312.02 548.64 365.99 545.28 419.93 C 544.40 426.58 544.57 433.42 542.80 439.93 C 541.75 443.62 537.12 443.98 533.94 443.54 C 528.60 442.86 526.11 436.74 526.66 431.94 C 527.73 398.61 529.51 365.31 531.01 331.99 C 532.29 301.72 534.39 271.44 533.32 241.12 C 532.68 231.31 531.16 221.51 527.98 212.18 C 520.42 189.03 511.84 166.23 503.34 143.41 C 495.91 123.92 488.68 104.33 480.52 85.13 C 477.13 78.48 475.23 71.10 471.08 64.85 C 468.06 60.23 462.64 56.99 457.00 57.70 C 442.75 58.85 429.04 63.29 415.40 67.30 L 414.50 66.86 C 402.99 60.32 391.23 54.15 378.86 49.37 C 377.27 48.76 375.65 48.24 373.96 48.01 C 387.67 41.06 403.05 38.97 417.97 36.09 Z" />
<path fill="#ffffff" d=" M 222.80 35.97 C 225.82 34.57 230.23 33.19 232.77 36.15 C 236.74 40.56 239.35 45.97 241.92 51.27 C 236.18 52.59 230.40 53.81 224.77 55.54 C 221.95 51.61 218.63 47.79 217.28 43.06 C 216.25 39.42 220.12 37.33 222.80 35.97 Z" />
<path fill="#000000" d=" M 322.77 40.56 C 324.03 40.53 325.30 40.50 326.57 40.48 C 326.39 41.35 326.24 42.29 327.09 42.90 C 328.44 42.32 329.63 41.44 330.74 40.48 C 338.22 40.71 345.71 41.28 353.12 42.43 C 352.41 43.26 351.70 44.08 350.97 44.89 C 342.04 43.84 333.03 43.40 324.04 43.89 C 323.60 43.59 322.72 42.99 322.27 42.69 C 322.43 41.98 322.60 41.27 322.77 40.56 Z" />
<path fill="#000000" d=" M 317.22 40.82 C 317.79 40.81 318.94 40.79 319.52 40.79 C 319.60 41.92 319.70 43.06 319.83 44.20 C 311.34 44.55 302.92 45.65 294.53 46.87 C 294.48 45.53 294.41 44.18 294.32 42.84 C 299.86 42.23 305.39 41.46 310.97 41.28 C 311.44 41.79 312.39 42.81 312.86 43.32 C 314.30 42.47 315.74 41.61 317.22 40.82 Z" />
<path fill="#000000" d=" M 271.14 45.66 C 276.91 45.46 282.59 44.34 288.30 43.56 C 289.65 44.77 291.00 45.99 292.35 47.21 C 284.24 48.34 276.20 49.93 268.07 50.89 C 253.76 52.60 239.63 55.50 225.61 58.78 C 225.40 57.97 224.98 56.35 224.77 55.54 C 230.40 53.81 236.18 52.59 241.92 51.27 C 242.46 51.72 243.53 52.64 244.07 53.10 C 246.28 53.59 247.07 51.23 248.15 49.84 C 254.03 48.67 259.91 47.44 265.85 46.58 C 266.51 49.70 270.81 50.09 271.99 47.12 C 271.78 46.75 271.35 46.03 271.14 45.66 Z" />
<path fill="#ffffff" d=" M 294.53 46.87 C 302.92 45.65 311.34 44.55 319.83 44.20 C 321.23 44.10 322.63 44.00 324.04 43.89 C 333.03 43.40 342.04 43.84 350.97 44.89 C 351.93 45.02 352.90 45.16 353.87 45.30 C 375.22 48.31 394.44 59.04 412.78 69.78 C 413.57 70.26 414.36 70.74 415.16 71.22 C 425.71 77.65 435.96 84.59 445.81 92.03 C 448.15 93.70 449.85 96.04 451.49 98.36 C 451.01 99.04 450.52 99.72 450.02 100.38 C 444.65 103.38 438.96 105.78 433.18 107.86 C 421.62 98.38 407.59 92.69 393.84 87.25 C 411.61 95.53 429.60 105.35 442.00 120.97 C 443.36 122.71 444.89 124.74 444.44 127.11 C 441.50 131.36 436.42 133.31 432.12 135.88 C 431.07 134.70 430.10 133.45 429.05 132.27 C 428.41 132.64 427.15 133.38 426.52 133.75 C 424.16 131.40 424.50 127.84 422.99 125.06 C 421.12 121.39 417.77 118.81 414.60 116.32 C 412.20 114.56 409.82 112.37 406.69 112.28 C 406.50 113.56 406.35 114.85 406.22 116.14 C 404.07 112.51 402.73 108.31 399.60 105.34 C 395.33 101.05 390.18 97.68 384.69 95.18 C 383.63 96.93 382.87 98.81 383.14 100.89 C 385.68 102.34 385.36 105.52 385.98 107.99 C 387.99 119.04 385.08 130.12 383.94 141.10 C 382.83 146.22 381.91 152.10 385.70 156.41 C 389.75 162.29 399.41 159.74 401.60 153.46 C 405.82 142.51 406.28 130.58 406.25 118.98 C 409.09 122.28 408.63 126.88 408.58 130.95 C 407.87 140.04 406.42 149.05 405.28 158.10 C 404.39 163.49 408.31 168.47 412.44 171.43 C 416.64 173.25 419.91 169.12 421.67 165.87 C 426.82 156.99 424.71 146.39 425.76 136.67 C 426.37 138.05 426.95 139.47 426.75 141.01 C 426.38 150.71 425.95 160.42 424.60 170.03 C 424.93 174.11 425.72 179.45 429.96 181.28 C 434.00 182.09 438.20 179.37 440.04 175.86 C 442.12 170.92 442.56 165.48 442.79 160.18 C 443.19 160.32 444.00 160.59 444.41 160.73 C 445.48 168.42 441.55 175.46 438.97 182.42 C 438.49 187.06 439.64 192.01 441.95 196.07 C 444.32 199.65 449.34 198.24 452.35 196.33 C 456.15 193.98 455.94 188.91 456.86 185.07 C 457.72 189.27 457.58 194.83 453.51 197.34 C 451.51 198.85 448.93 200.24 448.58 203.01 C 448.11 207.33 449.13 212.36 452.46 215.38 C 456.48 217.70 460.59 214.36 463.98 212.39 C 463.18 216.50 458.49 216.93 455.17 217.78 C 455.23 223.36 454.94 229.41 457.62 234.48 C 460.61 237.33 464.17 233.55 466.92 232.11 C 466.17 236.47 460.77 235.46 458.26 237.95 C 458.44 243.19 460.07 248.26 462.88 252.66 C 460.97 253.71 459.29 255.30 459.14 257.59 C 459.82 257.63 461.18 257.70 461.86 257.73 C 463.79 255.84 465.65 253.72 468.12 252.51 C 469.92 251.69 471.49 253.15 472.88 254.09 C 478.75 258.78 483.95 264.37 487.91 270.77 C 488.38 271.63 488.84 272.51 489.27 273.40 C 491.76 278.97 492.64 285.08 493.60 291.06 C 495.44 303.49 496.36 316.05 496.84 328.60 C 496.84 335.20 496.84 341.80 496.84 348.39 C 496.39 356.98 496.18 365.72 493.87 374.06 C 491.62 380.15 486.62 385.82 480.07 387.21 C 475.71 387.31 471.64 385.49 467.57 384.20 C 467.91 382.81 468.25 381.43 468.60 380.05 C 476.54 381.69 485.62 379.36 490.63 372.69 C 496.10 365.70 493.58 354.36 486.01 349.94 C 482.31 347.29 477.65 347.04 473.29 346.66 C 473.24 343.53 473.18 340.03 475.41 337.54 C 480.06 331.87 485.93 326.74 487.99 319.43 L 489.26 319.15 L 489.41 320.67 C 489.87 327.68 487.04 334.29 485.34 340.96 C 487.60 335.16 491.40 329.70 491.38 323.25 C 491.13 319.34 490.55 315.44 489.44 311.67 C 488.44 308.61 487.42 304.85 484.06 303.59 C 480.17 302.69 476.38 304.48 472.90 306.01 C 470.47 303.17 468.42 299.93 467.81 296.19 C 466.00 287.10 464.65 277.57 466.60 268.39 C 466.83 266.62 468.72 266.07 469.99 265.21 C 478.22 270.42 482.44 279.56 486.48 288.03 C 487.86 290.62 485.98 293.47 483.90 294.98 C 480.35 297.20 475.99 296.78 472.00 296.97 C 476.80 298.99 482.17 298.07 486.40 295.18 C 488.06 290.13 486.50 284.90 484.93 280.05 C 482.25 273.64 478.00 267.65 472.17 263.78 C 468.34 261.62 464.08 265.26 463.83 269.18 C 462.52 279.85 463.45 290.92 466.71 301.18 C 469.90 307.13 475.18 312.18 476.49 319.04 C 476.58 324.33 474.88 329.55 472.65 334.30 C 471.66 329.52 472.25 324.35 469.99 319.89 C 467.96 322.13 469.14 325.10 469.36 327.73 C 472.13 347.11 468.64 366.68 464.34 385.57 C 459.77 404.53 455.05 423.51 448.43 441.88 C 444.77 451.11 440.83 460.26 436.38 469.14 C 432.47 476.57 428.26 484.22 421.54 489.50 C 415.92 493.75 409.19 496.20 402.48 498.14 C 398.27 499.26 393.69 500.51 389.46 498.76 C 363.45 489.16 337.47 478.90 313.62 464.62 C 294.24 451.17 279.04 432.73 264.88 414.09 C 264.06 413.00 263.24 411.91 262.43 410.83 C 258.01 405.00 254.42 398.61 250.87 392.24 C 245.47 382.99 243.34 372.11 236.70 363.55 C 236.05 362.59 235.37 361.66 234.64 360.77 C 222.62 345.54 208.96 331.39 199.90 314.04 C 199.60 313.40 198.98 312.11 198.67 311.46 C 201.62 310.75 204.47 309.72 207.38 308.90 C 237.64 304.53 267.85 299.61 298.22 296.00 C 300.00 295.69 301.95 295.85 303.60 295.04 C 303.34 294.69 302.80 293.98 302.54 293.63 C 296.83 287.92 289.05 284.65 281.14 283.49 C 272.47 282.44 264.18 285.88 256.01 288.20 C 237.76 294.18 219.67 300.90 202.58 309.71 C 201.16 310.48 199.56 310.72 197.97 310.67 C 196.11 304.55 193.49 298.67 192.02 292.42 C 191.00 288.37 189.96 284.33 188.88 280.30 C 187.56 275.15 186.39 269.96 185.15 264.80 C 187.18 264.04 189.51 263.16 189.89 260.72 C 191.02 256.03 192.86 250.49 190.05 246.06 C 186.72 242.49 181.14 242.73 177.50 239.54 C 174.62 236.87 172.79 233.27 171.32 229.68 C 174.70 233.62 177.34 238.32 181.86 241.13 C 185.92 244.28 191.88 242.76 195.13 239.16 C 198.55 236.14 198.75 231.13 198.43 226.90 C 195.56 224.20 191.19 223.38 188.12 220.75 C 181.78 215.63 176.57 208.18 176.30 199.79 C 178.59 205.73 181.57 211.40 185.20 216.62 C 187.66 220.31 191.99 222.01 196.01 223.35 C 198.68 224.00 202.26 224.61 204.18 222.10 C 207.12 218.71 207.30 213.68 206.27 209.52 C 204.28 205.21 200.22 202.37 197.64 198.45 C 191.87 189.59 187.97 179.46 186.66 168.94 C 186.37 167.86 187.02 166.91 187.07 165.85 C 188.71 175.25 191.57 184.46 196.06 192.90 C 198.26 196.85 201.04 200.81 205.27 202.78 C 211.36 205.72 219.63 205.71 224.62 200.64 C 227.25 198.34 228.81 194.45 227.29 191.10 C 225.11 186.71 221.21 183.50 218.83 179.23 C 213.48 169.76 207.77 160.07 206.21 149.12 C 205.26 142.00 203.90 134.83 204.57 127.62 C 206.96 146.78 210.84 166.62 222.39 182.60 C 226.27 187.93 230.78 193.00 236.37 196.57 C 241.53 199.89 248.90 198.15 252.59 193.44 C 254.27 191.38 253.93 188.44 253.34 186.04 C 247.94 168.65 238.24 152.81 234.16 134.98 C 232.10 125.97 230.30 116.91 228.00 107.96 C 227.67 105.91 226.29 103.24 228.45 101.73 C 231.85 116.69 235.34 131.68 240.53 146.15 C 244.82 157.92 248.40 170.14 255.19 180.78 C 257.27 184.23 259.16 188.26 263.09 189.97 C 268.80 192.59 277.09 192.35 280.74 186.52 C 285.94 177.86 284.49 167.18 282.44 157.79 C 275.75 134.53 266.15 112.20 255.31 90.59 C 254.61 89.45 254.51 88.14 254.67 86.85 C 257.68 91.20 259.95 95.99 262.40 100.66 C 270.19 116.30 277.08 132.53 281.18 149.57 C 282.82 156.04 284.40 162.53 286.43 168.88 C 287.75 173.32 291.56 176.88 296.01 178.09 C 299.56 179.09 302.93 176.62 304.81 173.80 C 310.11 166.39 310.54 156.75 310.13 147.96 C 308.22 132.20 304.12 116.79 299.85 101.53 C 297.96 95.30 296.21 88.95 293.00 83.24 C 293.56 83.28 294.67 83.37 295.22 83.41 C 298.97 93.13 302.94 102.84 305.20 113.04 C 307.89 124.64 309.91 136.37 312.10 148.06 C 312.96 152.57 312.64 157.54 315.26 161.53 C 317.11 164.57 320.13 167.94 324.09 167.26 C 330.43 165.51 335.39 159.57 335.87 152.99 C 336.83 145.03 336.78 136.97 336.87 128.96 C 337.08 116.22 334.23 103.68 330.71 91.51 C 329.75 87.88 328.03 84.54 326.27 81.24 C 328.23 83.30 329.35 85.93 330.48 88.49 C 335.25 98.68 337.04 109.93 338.27 121.02 C 338.91 131.01 338.14 141.02 338.44 151.01 C 338.24 154.46 341.92 156.56 345.00 156.43 C 349.43 156.27 354.09 154.29 356.62 150.51 C 359.01 146.76 359.73 142.24 360.43 137.92 C 361.75 125.44 361.33 112.84 360.56 100.34 C 360.41 96.69 358.98 93.29 358.31 89.73 C 363.40 98.17 363.11 108.47 362.64 117.99 C 362.68 127.01 361.65 135.99 361.63 145.01 C 361.28 150.87 367.47 155.95 373.15 154.52 C 377.46 153.33 381.25 149.73 381.84 145.17 C 382.80 139.49 383.11 133.72 383.47 127.98 C 383.67 119.98 385.50 111.84 383.49 103.93 C 382.93 101.74 382.82 99.47 382.63 97.23 C 379.76 95.87 378.54 92.74 376.33 90.65 C 372.57 86.94 367.06 85.94 362.00 85.50 C 359.66 85.26 356.71 87.76 355.26 84.80 C 350.76 78.28 342.24 77.99 335.11 77.41 C 332.33 77.45 329.01 76.36 326.97 78.82 C 322.39 79.59 319.02 75.92 314.81 74.97 C 307.74 73.14 300.31 75.10 293.79 77.94 C 293.70 78.55 293.54 79.76 293.45 80.36 C 292.61 80.33 290.93 80.27 290.09 80.24 C 287.59 78.16 285.19 75.73 281.99 74.78 C 278.45 73.76 274.75 73.46 271.08 73.54 C 265.04 73.59 259.54 76.59 254.61 79.81 C 252.44 80.83 253.35 83.45 253.37 85.31 C 251.71 83.35 249.89 81.18 247.07 81.25 C 240.23 79.65 232.43 82.59 228.95 88.81 C 227.04 92.01 227.89 95.85 227.71 99.38 C 225.58 98.38 223.13 97.50 221.14 99.33 C 213.62 104.93 206.23 112.27 204.48 121.86 C 203.95 123.90 201.69 124.73 200.68 126.47 C 196.17 134.02 191.69 141.69 188.87 150.06 C 187.40 154.16 187.51 158.69 185.46 162.60 C 184.77 162.55 183.40 162.46 182.72 162.41 C 180.23 166.88 178.08 171.56 176.84 176.54 C 176.09 176.49 174.59 176.39 173.84 176.34 C 172.45 175.52 171.04 174.73 169.62 173.98 C 168.46 171.12 168.72 168.01 168.46 165.01 C 168.30 162.48 167.66 159.86 168.61 157.40 C 171.40 149.01 174.40 140.63 178.58 132.82 C 184.53 122.12 193.00 113.17 201.16 104.17 C 196.98 107.97 193.09 112.07 189.41 116.35 C 184.85 121.13 180.35 126.05 176.90 131.72 C 172.12 139.68 168.81 148.40 165.38 157.00 C 162.61 157.29 159.96 158.08 157.35 158.98 C 161.33 146.94 166.16 135.20 171.26 123.60 C 175.20 114.92 179.11 106.17 184.36 98.19 C 193.76 84.27 205.99 72.64 217.65 60.66 C 218.28 60.52 219.54 60.24 220.17 60.09 C 221.99 59.67 223.79 59.23 225.61 58.78 C 239.63 55.50 253.76 52.60 268.07 50.89 C 276.20 49.93 284.24 48.34 292.35 47.21 C 292.89 47.12 293.98 46.96 294.53 46.87 Z" />
<path fill="#000000" d=" M 353.87 45.30 C 354.80 44.57 355.72 43.83 356.64 43.07 C 361.04 44.05 365.55 44.77 369.76 46.44 C 370.99 47.38 372.38 48.05 373.96 48.01 C 375.65 48.24 377.27 48.76 378.86 49.37 C 391.23 54.15 402.99 60.32 414.50 66.86 C 414.07 67.59 413.21 69.05 412.78 69.78 C 394.44 59.04 375.22 48.31 353.87 45.30 Z" />
<path fill="#ffffff" d=" M 200.46 51.43 C 201.94 49.96 203.72 48.09 206.04 48.67 C 211.16 50.03 215.28 53.64 219.19 57.06 C 218.04 57.23 216.90 57.40 215.75 57.57 C 213.63 60.87 210.21 63.08 208.14 66.39 C 202.76 65.78 197.37 65.16 192.00 64.47 C 194.38 59.87 196.91 55.25 200.46 51.43 Z" />
<path fill="#000000" d=" M 215.75 57.57 C 216.90 57.40 218.04 57.23 219.19 57.06 C 219.54 57.37 220.23 57.98 220.57 58.28 C 220.47 58.73 220.27 59.64 220.17 60.09 C 219.54 60.24 218.28 60.52 217.65 60.66 C 205.99 72.64 193.76 84.27 184.36 98.19 C 179.11 106.17 175.20 114.92 171.26 123.60 C 166.16 135.20 161.33 146.94 157.35 158.98 C 159.96 158.08 162.61 157.29 165.38 157.00 C 168.81 148.40 172.12 139.68 176.90 131.72 C 180.35 126.05 184.85 121.13 189.41 116.35 C 193.09 112.07 196.98 107.97 201.16 104.17 C 193.00 113.17 184.53 122.12 178.58 132.82 C 174.40 140.63 171.40 149.01 168.61 157.40 C 167.66 159.86 168.30 162.48 168.46 165.01 C 168.72 168.01 168.46 171.12 169.62 173.98 C 171.04 174.73 172.45 175.52 173.84 176.34 C 174.59 176.39 176.09 176.49 176.84 176.54 C 176.37 178.03 175.78 179.47 175.21 180.92 C 173.76 180.36 172.32 179.81 170.88 179.26 C 168.80 177.05 165.84 175.27 165.43 171.99 C 166.18 170.66 166.93 169.34 167.68 168.01 C 167.14 167.66 166.05 166.94 165.51 166.58 C 165.27 164.55 164.98 162.52 164.57 160.51 C 164.13 160.46 163.24 160.35 162.80 160.30 C 162.14 160.23 160.81 160.09 160.14 160.02 C 159.87 160.64 159.33 161.86 159.07 162.47 C 157.53 162.59 155.99 162.69 154.45 162.77 C 153.32 157.28 156.59 152.22 158.13 147.13 C 165.31 129.10 172.28 110.71 183.01 94.43 C 183.58 94.37 184.73 94.26 185.30 94.20 C 185.36 93.23 185.42 92.27 185.48 91.31 C 189.21 85.88 193.74 81.07 198.09 76.15 C 200.22 73.91 202.15 71.39 204.83 69.76 C 206.42 69.11 207.72 68.14 208.14 66.39 C 210.21 63.08 213.63 60.87 215.75 57.57 Z" />
<path fill="#ffffff" d=" M 430.05 66.24 C 439.06 64.13 448.05 61.21 457.38 61.15 C 461.37 68.74 467.22 75.25 471.01 82.94 C 457.65 76.66 443.69 71.84 430.05 66.24 Z" />
<path fill="#ffffff" d=" M 461.05 61.09 C 467.77 63.01 470.68 70.07 473.06 75.97 C 474.67 80.41 476.77 84.63 478.73 88.91 C 473.44 79.27 466.71 70.51 461.05 61.09 Z" />
<path fill="#ffffff" d=" M 168.54 69.56 C 171.95 66.79 176.54 66.13 180.79 66.81 C 188.77 67.96 197.05 67.41 204.83 69.76 C 202.15 71.39 200.22 73.91 198.09 76.15 C 193.74 81.07 189.21 85.88 185.48 91.31 C 180.67 91.41 175.49 90.68 171.09 93.12 C 163.16 97.44 155.74 103.67 152.25 112.21 C 145.33 128.11 139.69 144.54 134.44 161.06 C 132.02 169.03 129.43 176.96 127.71 185.12 C 126.34 178.82 126.41 172.35 125.75 165.96 C 124.84 151.98 124.33 137.31 130.08 124.19 C 135.57 111.40 143.38 99.78 151.58 88.59 C 156.72 81.84 161.85 74.88 168.54 69.56 Z" />
<path fill="#ffffff" d=" M 419.07 69.68 C 421.65 68.74 424.53 67.44 427.24 68.77 C 439.94 73.60 452.68 78.37 465.16 83.78 C 467.63 84.89 470.18 85.92 472.38 87.54 C 481.91 95.34 487.24 107.06 489.57 118.94 C 493.23 136.93 496.77 154.95 499.80 173.06 C 507.83 223.40 512.22 274.21 516.61 324.96 C 518.31 344.62 519.88 364.31 520.28 384.05 C 520.76 410.12 512.10 435.08 504.66 459.72 C 501.43 449.58 499.14 439.19 496.33 428.94 C 496.01 425.09 497.81 421.53 498.66 417.87 C 501.79 406.13 504.58 394.21 505.26 382.05 C 505.56 365.53 502.49 349.20 500.27 332.90 C 499.06 312.49 498.89 291.53 492.32 271.96 C 489.22 249.04 486.63 226.04 483.69 203.10 C 480.82 181.72 478.78 160.22 474.82 139.00 C 473.31 129.94 468.84 121.75 463.53 114.38 C 462.89 113.44 462.26 112.51 461.64 111.58 C 459.84 108.80 457.86 106.15 455.70 103.65 C 455.53 100.92 456.29 97.87 454.59 95.48 C 452.27 91.47 448.26 88.93 444.60 86.27 C 436.31 80.41 427.85 74.78 419.07 69.68 Z" />
<path fill="#000000" d=" M 415.16 71.22 C 416.46 70.70 417.76 70.19 419.07 69.68 C 427.85 74.78 436.31 80.41 444.60 86.27 C 448.26 88.93 452.27 91.47 454.59 95.48 C 456.29 97.87 455.53 100.92 455.70 103.65 C 454.20 101.96 452.80 100.19 451.49 98.36 C 449.85 96.04 448.15 93.70 445.81 92.03 C 435.96 84.59 425.71 77.65 415.16 71.22 Z" />
<path fill="#000000" d=" M 254.61 79.81 C 259.54 76.59 265.04 73.59 271.08 73.54 C 274.75 73.46 278.45 73.76 281.99 74.78 C 285.19 75.73 287.59 78.16 290.09 80.24 C 290.93 80.27 292.61 80.33 293.45 80.36 C 293.54 79.76 293.70 78.55 293.79 77.94 C 300.31 75.10 307.74 73.14 314.81 74.97 C 319.02 75.92 322.39 79.59 326.97 78.82 C 329.01 76.36 332.33 77.45 335.11 77.41 C 342.24 77.99 350.76 78.28 355.26 84.80 C 356.71 87.76 359.66 85.26 362.00 85.50 C 367.06 85.94 372.57 86.94 376.33 90.65 C 378.54 92.74 379.76 95.87 382.63 97.23 C 382.82 99.47 382.93 101.74 383.49 103.93 C 385.50 111.84 383.67 119.98 383.47 127.98 C 383.11 133.72 382.80 139.49 381.84 145.17 C 381.25 149.73 377.46 153.33 373.15 154.52 C 367.47 155.95 361.28 150.87 361.63 145.01 C 361.65 135.99 362.68 127.01 362.64 117.99 C 363.11 108.47 363.40 98.17 358.31 89.73 C 358.98 93.29 360.41 96.69 360.56 100.34 C 361.33 112.84 361.75 125.44 360.43 137.92 C 359.73 142.24 359.01 146.76 356.62 150.51 C 354.09 154.29 349.43 156.27 345.00 156.43 C 341.92 156.56 338.24 154.46 338.44 151.01 C 338.14 141.02 338.91 131.01 338.27 121.02 C 337.04 109.93 335.25 98.68 330.48 88.49 C 329.35 85.93 328.23 83.30 326.27 81.24 C 328.03 84.54 329.75 87.88 330.71 91.51 C 334.23 103.68 337.08 116.22 336.87 128.96 C 336.78 136.97 336.83 145.03 335.87 152.99 C 335.39 159.57 330.43 165.51 324.09 167.26 C 320.13 167.94 317.11 164.57 315.26 161.53 C 312.64 157.54 312.96 152.57 312.10 148.06 C 309.91 136.37 307.89 124.64 305.20 113.04 C 302.94 102.84 298.97 93.13 295.22 83.41 C 294.67 83.37 293.56 83.28 293.00 83.24 C 296.21 88.95 297.96 95.30 299.85 101.53 C 304.12 116.79 308.22 132.20 310.13 147.96 C 310.54 156.75 310.11 166.39 304.81 173.80 C 302.93 176.62 299.56 179.09 296.01 178.09 C 291.56 176.88 287.75 173.32 286.43 168.88 C 284.40 162.53 282.82 156.04 281.18 149.57 C 277.08 132.53 270.19 116.30 262.40 100.66 C 259.95 95.99 257.68 91.20 254.67 86.85 C 254.51 88.14 254.61 89.45 255.31 90.59 C 266.15 112.20 275.75 134.53 282.44 157.79 C 284.49 167.18 285.94 177.86 280.74 186.52 C 277.09 192.35 268.80 192.59 263.09 189.97 C 259.16 188.26 257.27 184.23 255.19 180.78 C 248.40 170.14 244.82 157.92 240.53 146.15 C 235.34 131.68 231.85 116.69 228.45 101.73 C 228.21 100.94 227.96 100.16 227.71 99.38 C 227.89 95.85 227.04 92.01 228.95 88.81 C 232.43 82.59 240.23 79.65 247.07 81.25 C 249.89 81.18 251.71 83.35 253.37 85.31 C 253.35 83.45 252.44 80.83 254.61 79.81 Z" />
<path fill="#ffffff" d=" M 256.22 82.66 C 260.90 79.51 266.21 76.54 272.03 76.69 C 276.06 76.86 280.49 76.90 283.92 79.29 C 287.60 82.16 291.26 85.53 292.75 90.10 C 297.69 103.90 301.20 118.17 304.32 132.48 C 305.85 140.53 307.87 148.74 306.79 156.98 C 306.44 163.32 304.84 170.35 299.63 174.48 C 295.23 176.19 290.85 172.06 289.58 168.11 C 285.81 156.40 283.69 144.22 279.58 132.62 C 273.44 115.26 265.55 98.53 256.22 82.66 Z" />
<path fill="#ffffff" d=" M 297.31 79.82 C 303.25 77.89 309.97 76.15 315.98 78.79 C 320.52 80.46 324.79 83.67 326.23 88.50 C 331.42 103.38 334.42 119.20 333.70 135.01 C 333.35 141.53 333.59 148.13 332.34 154.58 C 331.60 158.56 328.56 161.77 325.04 163.55 C 322.57 164.74 320.10 163.20 318.86 161.07 C 315.69 157.48 316.25 152.44 315.37 148.05 C 313.03 135.67 310.90 123.25 308.03 110.98 C 305.53 100.25 301.14 90.11 297.31 79.82 Z" />
<path fill="#ffffff" d=" M 330.23 80.49 C 336.05 80.57 342.01 80.87 347.59 82.67 C 353.63 85.21 355.76 92.17 357.03 98.03 C 358.09 105.96 357.74 114.00 357.83 121.98 C 357.75 130.36 358.07 139.03 354.92 146.96 C 352.99 151.84 346.43 154.73 341.69 152.23 C 341.06 139.22 342.78 126.08 340.51 113.16 C 339.03 101.76 335.75 90.60 330.23 80.49 Z" />
<path fill="#ffffff" d=" M 238.50 84.76 C 241.87 83.78 245.46 84.28 248.88 84.72 C 260.89 108.67 272.19 133.16 279.40 159.04 C 281.08 166.86 282.26 175.44 279.01 183.02 C 276.37 190.07 265.75 189.82 261.43 184.61 C 256.69 177.73 252.68 170.32 249.83 162.45 C 241.65 140.87 234.43 118.74 231.06 95.84 C 229.69 90.75 234.21 86.51 238.50 84.76 Z" />
<path fill="#000000" d=" M 393.84 87.25 C 407.59 92.69 421.62 98.38 433.18 107.86 C 438.96 105.78 444.65 103.38 450.02 100.38 C 450.82 101.69 451.63 103.00 452.48 104.29 C 447.32 106.83 441.80 108.45 436.45 110.51 C 440.41 114.18 444.50 118.00 447.00 122.86 C 448.40 125.59 447.52 128.74 445.70 131.02 C 448.55 140.42 451.36 150.07 450.27 160.01 C 449.67 160.20 448.47 160.58 447.87 160.77 C 446.68 156.81 448.44 152.63 446.98 148.70 C 445.95 143.47 444.42 138.36 443.06 133.21 C 440.22 135.05 437.30 136.75 434.27 138.24 C 433.55 137.45 432.84 136.66 432.12 135.88 C 436.42 133.31 441.50 131.36 444.44 127.11 C 444.89 124.74 443.36 122.71 442.00 120.97 C 429.60 105.35 411.61 95.53 393.84 87.25 Z" />
<path fill="#ffffff" d=" M 362.24 88.65 C 366.32 89.41 370.99 89.74 374.04 92.93 C 378.69 97.65 381.18 104.40 380.93 111.00 C 380.93 120.69 380.11 130.35 379.37 140.00 C 378.85 143.18 378.95 147.05 376.14 149.23 C 374.05 151.28 370.68 152.52 368.07 150.64 C 365.22 149.31 364.50 145.85 364.78 143.00 C 365.42 134.69 365.60 126.36 365.81 118.04 C 366.22 112.70 366.66 107.27 365.69 101.97 C 365.11 97.39 363.26 93.12 362.24 88.65 Z" />
<path fill="#ffffff" d=" M 172.20 96.16 C 175.46 94.17 179.36 94.51 183.01 94.43 C 172.28 110.71 165.31 129.10 158.13 147.13 C 156.59 152.22 153.32 157.28 154.45 162.77 C 155.99 162.69 157.53 162.59 159.07 162.47 C 156.69 171.66 154.64 180.93 152.58 190.19 C 150.14 201.80 147.13 213.31 145.64 225.10 C 141.29 259.82 137.25 294.94 140.50 329.95 C 143.06 360.34 146.12 390.69 149.98 420.95 C 151.34 431.07 153.55 441.05 155.27 451.11 C 155.53 453.26 156.00 455.48 155.54 457.64 C 153.09 459.18 149.04 459.32 147.48 456.44 C 141.54 447.75 138.84 437.32 137.85 426.95 C 132.48 380.48 127.81 333.91 124.62 287.25 C 123.80 260.85 122.03 234.20 126.22 207.98 C 128.97 189.26 134.49 171.09 140.35 153.15 C 144.78 139.93 149.39 126.75 154.97 113.97 C 158.11 106.05 164.94 100.24 172.20 96.16 Z" />
<path fill="#000000" d=" M 383.14 100.89 C 382.87 98.81 383.63 96.93 384.69 95.18 C 390.18 97.68 395.33 101.05 399.60 105.34 C 402.73 108.31 404.07 112.51 406.22 116.14 C 406.23 116.85 406.24 118.27 406.25 118.98 C 406.28 130.58 405.82 142.51 401.60 153.46 C 399.41 159.74 389.75 162.29 385.70 156.41 C 381.91 152.10 382.83 146.22 383.94 141.10 C 385.08 130.12 387.99 119.04 385.98 107.99 C 385.36 105.52 385.68 102.34 383.14 100.89 Z" />
<path fill="#111725" d=" M 451.49 98.36 C 452.80 100.19 454.20 101.96 455.70 103.65 C 457.86 106.15 459.84 108.80 461.64 111.58 C 460.79 111.73 459.10 112.02 458.25 112.17 C 456.39 109.50 454.34 106.96 452.48 104.29 C 451.63 103.00 450.82 101.69 450.02 100.38 C 450.52 99.72 451.01 99.04 451.49 98.36 Z" />
<path fill="#ffffff" d=" M 387.76 100.42 C 394.51 104.17 401.24 109.68 402.38 117.81 C 403.50 129.24 402.69 141.07 398.76 151.92 C 397.55 156.10 391.11 158.53 388.35 154.50 C 384.88 150.80 386.54 145.53 387.19 141.10 C 388.08 132.41 390.04 123.79 389.84 115.01 C 389.80 110.08 388.75 105.23 387.76 100.42 Z" />
<path fill="#ffffff" d=" M 216.02 107.97 C 218.30 105.83 220.33 103.20 223.34 102.04 C 226.05 113.11 228.53 124.23 230.94 135.37 C 235.04 153.78 245.22 170.04 250.54 188.03 C 251.62 192.96 245.74 194.78 241.98 195.31 C 236.33 193.98 232.31 189.44 228.57 185.32 C 220.80 175.96 215.36 164.73 212.44 152.94 C 210.03 143.43 208.14 133.73 207.79 123.91 C 207.72 117.58 211.81 112.28 216.02 107.97 Z" />
<path fill="#ffffff" d=" M 436.45 110.51 C 441.80 108.45 447.32 106.83 452.48 104.29 C 454.34 106.96 456.39 109.50 458.25 112.17 C 459.11 113.90 459.57 115.78 460.08 117.64 C 463.97 132.47 467.76 147.37 470.10 162.54 C 472.43 180.29 473.23 198.19 474.33 216.05 C 474.75 228.04 475.70 240.01 475.60 252.02 C 474.29 251.15 472.98 250.27 471.64 249.47 C 473.24 243.25 472.44 236.56 469.52 230.86 C 469.58 224.79 470.45 218.52 468.34 212.61 C 467.88 212.27 466.98 211.59 466.52 211.25 C 464.32 205.35 467.52 199.02 464.91 193.25 C 463.39 189.52 462.48 185.30 459.41 182.47 C 456.81 179.45 456.78 175.26 456.06 171.55 C 455.09 167.29 452.64 163.60 450.27 160.01 C 451.36 150.07 448.55 140.42 445.70 131.02 C 447.52 128.74 448.40 125.59 447.00 122.86 C 444.50 118.00 440.41 114.18 436.45 110.51 Z" />
<path fill="#000000" d=" M 458.25 112.17 C 459.10 112.02 460.79 111.73 461.64 111.58 C 462.26 112.51 462.89 113.44 463.53 114.38 C 463.55 117.74 463.42 121.27 465.09 124.32 C 468.35 136.79 471.32 149.36 473.28 162.11 C 475.94 182.96 476.87 203.98 477.93 224.96 C 478.68 234.71 478.57 244.51 478.89 254.27 C 481.44 258.18 485.40 261.10 487.99 265.07 C 488.73 266.95 488.73 268.91 487.91 270.77 C 483.95 264.37 478.75 258.78 472.88 254.09 C 471.49 253.15 469.92 251.69 468.12 252.51 C 465.65 253.72 463.79 255.84 461.86 257.73 C 461.18 257.70 459.82 257.63 459.14 257.59 C 459.29 255.30 460.97 253.71 462.88 252.66 C 464.35 252.22 465.74 251.51 466.24 249.93 C 466.63 249.79 467.40 249.50 467.79 249.35 C 468.75 249.38 470.68 249.44 471.64 249.47 C 472.98 250.27 474.29 251.15 475.60 252.02 C 475.70 240.01 474.75 228.04 474.33 216.05 C 473.23 198.19 472.43 180.29 470.10 162.54 C 467.76 147.37 463.97 132.47 460.08 117.64 C 459.57 115.78 459.11 113.90 458.25 112.17 Z" />
<path fill="#111725" d=" M 406.69 112.28 C 409.82 112.37 412.20 114.56 414.60 116.32 C 417.77 118.81 421.12 121.39 422.99 125.06 C 424.50 127.84 424.16 131.40 426.52 133.75 C 427.15 133.38 428.41 132.64 429.05 132.27 C 430.10 133.45 431.07 134.70 432.12 135.88 C 432.84 136.66 433.55 137.45 434.27 138.24 C 436.11 140.59 437.86 143.02 439.41 145.57 C 441.39 148.75 442.09 152.52 444.03 155.72 C 445.11 155.29 446.20 154.85 447.29 154.42 C 447.18 152.51 447.12 150.60 446.98 148.70 C 448.44 152.63 446.68 156.81 447.87 160.77 C 448.47 160.58 449.67 160.20 450.27 160.01 C 452.64 163.60 455.09 167.29 456.06 171.55 C 456.78 175.26 456.81 179.45 459.41 182.47 C 462.48 185.30 463.39 189.52 464.91 193.25 C 467.52 199.02 464.32 205.35 466.52 211.25 C 466.98 211.59 467.88 212.27 468.34 212.61 C 470.45 218.52 469.58 224.79 469.52 230.86 C 472.44 236.56 473.24 243.25 471.64 249.47 C 470.68 249.44 468.75 249.38 467.79 249.35 L 468.45 249.09 C 469.53 245.12 469.33 240.96 468.52 236.97 C 466.25 238.06 463.90 238.99 461.51 239.76 C 462.54 243.33 462.43 247.99 466.24 249.93 C 465.74 251.51 464.35 252.22 462.88 252.66 C 460.07 248.26 458.44 243.19 458.26 237.95 C 460.77 235.46 466.17 236.47 466.92 232.11 C 464.17 233.55 460.61 237.33 457.62 234.48 C 454.94 229.41 455.23 223.36 455.17 217.78 C 458.49 216.93 463.18 216.50 463.98 212.39 C 460.59 214.36 456.48 217.70 452.46 215.38 C 449.13 212.36 448.11 207.33 448.58 203.01 C 448.93 200.24 451.51 198.85 453.51 197.34 C 457.58 194.83 457.72 189.27 456.86 185.07 C 455.94 188.91 456.15 193.98 452.35 196.33 C 449.34 198.24 444.32 199.65 441.95 196.07 C 439.64 192.01 438.49 187.06 438.97 182.42 C 441.55 175.46 445.48 168.42 444.41 160.73 C 444.00 160.59 443.19 160.32 442.79 160.18 C 442.56 165.48 442.12 170.92 440.04 175.86 C 438.20 179.37 434.00 182.09 429.96 181.28 C 425.72 179.45 424.93 174.11 424.60 170.03 C 425.95 160.42 426.38 150.71 426.75 141.01 C 426.95 139.47 426.37 138.05 425.76 136.67 C 424.71 146.39 426.82 156.99 421.67 165.87 C 419.91 169.12 416.64 173.25 412.44 171.43 C 408.31 168.47 404.39 163.49 405.28 158.10 C 406.42 149.05 407.87 140.04 408.58 130.95 C 408.63 126.88 409.09 122.28 406.25 118.98 C 406.24 118.27 406.23 116.85 406.22 116.14 C 406.35 114.85 406.50 113.56 406.69 112.28 Z" />
<path fill="#111725" d=" M 463.53 114.38 C 468.84 121.75 473.31 129.94 474.82 139.00 C 478.78 160.22 480.82 181.72 483.69 203.10 C 486.63 226.04 489.22 249.04 492.32 271.96 C 491.56 272.32 490.04 273.04 489.27 273.40 C 488.84 272.51 488.38 271.63 487.91 270.77 C 488.73 268.91 488.73 266.95 487.99 265.07 C 483.75 228.36 479.09 191.70 474.29 155.07 C 472.48 144.08 471.47 132.45 465.27 122.85 L 465.09 124.32 C 463.42 121.27 463.55 117.74 463.53 114.38 Z" />
<path fill="#ffffff" d=" M 410.48 117.20 C 414.84 120.69 420.33 124.10 421.34 130.07 C 422.72 139.63 422.61 149.43 421.06 158.97 C 419.77 162.76 418.18 167.66 413.90 168.88 C 411.16 165.99 407.50 162.53 408.46 158.15 C 409.93 144.59 413.68 130.79 410.48 117.20 Z" />
<path fill="#ffffff" d=" M 465.27 122.85 C 471.47 132.45 472.48 144.08 474.29 155.07 C 479.09 191.70 483.75 228.36 487.99 265.07 C 485.40 261.10 481.44 258.18 478.89 254.27 C 478.57 244.51 478.68 234.71 477.93 224.96 C 476.87 203.98 475.94 182.96 473.28 162.11 C 471.32 149.36 468.35 136.79 465.09 124.32 L 465.27 122.85 Z" />
<path fill="#ffffff" d=" M 495.31 131.04 C 499.01 141.44 503.13 151.70 506.87 162.09 C 507.43 163.66 507.64 165.33 507.97 166.97 C 513.84 198.78 519.50 230.70 522.22 262.96 C 523.48 287.49 522.60 312.07 521.20 336.58 C 521.09 336.58 520.88 336.59 520.77 336.60 C 514.96 267.81 509.34 198.76 495.31 131.04 Z" />
<path fill="#ffffff" d=" M 197.82 137.95 C 198.85 136.27 199.39 134.13 201.17 133.07 C 202.01 143.02 202.78 153.22 206.65 162.55 C 209.27 168.92 212.68 174.93 216.08 180.91 C 218.34 184.86 221.67 188.03 224.09 191.87 C 225.74 194.35 223.81 197.37 221.78 198.94 C 217.22 202.72 210.40 202.08 205.51 199.28 C 201.31 196.43 198.91 191.74 196.86 187.25 C 193.24 178.97 190.26 170.13 190.35 161.00 C 190.16 152.70 194.15 145.13 197.82 137.95 Z" />
<path fill="#ffffff" d=" M 434.27 138.24 C 437.30 136.75 440.22 135.05 443.06 133.21 C 444.42 138.36 445.95 143.47 446.98 148.70 C 447.12 150.60 447.18 152.51 447.29 154.42 C 446.20 154.85 445.11 155.29 444.03 155.72 C 442.09 152.52 441.39 148.75 439.41 145.57 C 437.86 143.02 436.11 140.59 434.27 138.24 Z" />
<path fill="#ffffff" d=" M 429.84 141.95 C 429.71 140.89 430.24 139.98 430.54 139.02 C 434.44 143.69 438.63 148.73 439.44 154.97 C 439.97 161.37 439.37 167.91 437.39 174.02 C 436.51 176.41 433.99 177.50 431.90 178.57 C 428.44 177.31 428.17 173.10 427.74 170.00 C 429.35 160.73 429.50 151.32 429.84 141.95 Z" />
<path fill="#ffffff" d=" M 162.80 160.30 C 163.24 160.35 164.13 160.46 164.57 160.51 C 164.98 162.52 165.27 164.55 165.51 166.58 C 163.23 169.57 161.17 172.72 159.32 175.99 C 160.06 170.67 161.69 165.54 162.80 160.30 Z" />
<path fill="#ffffff" d=" M 447.89 163.15 C 454.01 168.85 454.01 178.18 453.33 185.97 C 452.81 188.59 453.02 191.96 450.55 193.65 C 448.95 195.00 446.74 194.76 444.80 194.89 C 442.57 190.19 440.75 184.25 443.62 179.43 C 445.86 174.27 447.67 168.82 447.89 163.15 Z" />
<path fill="#ffffff" d=" M 180.76 202.28 C 175.60 191.70 177.99 179.02 183.25 168.98 C 185.04 180.49 189.05 191.73 195.72 201.33 C 198.13 204.65 201.67 207.14 203.41 210.94 C 203.85 214.20 203.94 218.55 201.00 220.64 C 196.81 221.06 192.73 218.88 189.42 216.51 C 185.61 212.43 183.21 207.24 180.76 202.28 Z" />
<path fill="#ffffff" d=" M 158.26 185.12 C 159.97 180.40 162.88 176.27 165.43 171.99 C 165.84 175.27 168.80 177.05 170.88 179.26 C 172.32 179.81 173.76 180.36 175.21 180.92 C 169.99 194.74 164.36 208.54 161.52 223.08 C 158.87 236.75 162.51 250.43 164.63 263.90 C 168.35 282.64 172.53 301.28 176.60 319.95 C 184.47 355.43 192.42 390.90 200.86 426.25 C 203.85 438.27 206.47 450.42 210.65 462.11 C 217.48 481.60 226.42 500.29 232.82 519.94 C 233.70 522.35 233.85 524.93 233.69 527.48 C 227.71 526.58 221.85 523.60 218.04 518.86 C 214.90 513.68 212.73 507.98 210.31 502.45 C 199.05 474.99 189.22 446.93 180.79 418.47 C 171.23 384.90 164.47 350.62 157.92 316.37 C 153.98 294.37 149.95 272.35 147.81 250.08 C 146.66 238.35 148.80 226.67 150.81 215.16 C 152.66 205.00 154.75 194.84 158.26 185.12 Z" />
<path fill="#ffffff" d=" M 460.69 190.92 C 463.40 196.30 462.88 202.33 461.87 208.07 C 461.46 210.82 458.51 212.37 456.01 212.79 C 452.47 213.25 452.24 208.34 451.65 205.91 C 450.74 202.53 454.14 200.90 456.36 199.26 C 459.14 197.39 459.76 193.89 460.69 190.92 Z" />
<path fill="#e9e9eb" d=" M 165.84 217.84 C 168.24 209.09 171.06 200.45 174.49 192.04 C 174.07 194.20 173.83 196.39 173.28 198.51 C 168.94 203.64 169.00 210.74 168.55 217.09 C 165.84 227.78 165.40 238.95 165.62 249.95 C 163.15 239.43 163.04 228.30 165.84 217.84 Z" />
<path fill="#ffffff" d=" M 179.40 234.66 C 171.78 226.92 169.86 214.77 173.75 204.78 C 175.06 210.99 178.92 216.25 183.23 220.76 C 186.63 224.33 191.20 226.36 195.48 228.64 C 195.46 232.50 194.46 236.91 190.60 238.67 C 186.43 241.51 182.11 237.67 179.40 234.66 Z" />
<path fill="#ffffff" d=" M 458.20 220.51 C 461.12 220.18 463.50 217.53 466.22 217.37 C 466.51 221.12 467.73 225.66 465.02 228.82 C 463.66 230.43 461.94 232.09 459.65 231.88 C 458.84 228.13 458.37 224.33 458.20 220.51 Z" />
<path fill="#151515" d=" M 385.57 236.32 C 395.17 232.15 404.97 228.42 414.97 225.35 C 411.95 227.28 408.57 228.56 405.59 230.55 C 403.57 233.55 399.91 234.67 397.25 236.97 C 387.53 244.72 377.15 251.59 367.36 259.23 C 357.36 267.00 346.98 274.24 337.16 282.22 C 335.33 283.56 333.70 285.36 331.38 285.80 C 331.16 286.58 330.96 287.36 330.78 288.15 C 330.04 286.50 329.38 284.74 329.87 282.92 C 331.18 272.33 336.62 261.70 346.00 256.12 C 358.63 248.46 372.10 242.31 385.57 236.32 Z" />
<path fill="#ffffff" d=" M 347.45 257.34 C 364.42 247.19 382.70 239.50 400.80 231.64 C 401.45 232.06 402.11 232.49 402.78 232.93 C 390.93 239.62 379.82 247.68 368.91 255.84 C 356.41 265.66 343.08 274.46 331.36 285.24 C 332.41 274.29 337.59 262.97 347.45 257.34 Z" />
<path fill="#ffffff" d=" M 169.44 233.92 C 172.02 238.11 174.72 242.77 179.63 244.52 C 182.54 246.14 187.38 246.01 188.29 249.89 C 188.46 253.78 187.51 257.66 186.18 261.29 C 179.50 259.12 173.38 253.98 171.30 247.10 C 169.98 242.84 169.26 238.39 169.44 233.92 Z" />
<path fill="#ffffff" d=" M 461.51 239.76 C 463.90 238.99 466.25 238.06 468.52 236.97 C 469.33 240.96 469.53 245.12 468.45 249.09 L 467.79 249.35 C 467.40 249.50 466.63 249.79 466.24 249.93 C 462.43 247.99 462.54 243.33 461.51 239.76 Z" />
<path fill="#ffffff" d=" M 168.70 250.06 C 171.46 255.58 176.01 260.00 181.43 262.91 C 182.74 268.94 184.09 274.96 185.49 280.97 C 189.08 297.46 191.44 314.19 193.99 330.87 C 197.51 354.21 198.71 377.86 198.40 401.44 C 188.41 359.05 178.98 316.52 169.95 273.92 C 169.49 265.98 169.21 258.01 168.70 250.06 Z" />
<path fill="#ffffff" d=" M 142.70 308.96 C 142.11 291.94 143.41 274.85 145.14 257.94 C 151.77 304.28 160.55 350.33 171.46 395.86 C 172.92 402.28 174.94 408.56 176.16 415.03 C 180.46 443.40 185.13 471.71 190.23 499.94 C 193.99 519.73 196.85 539.72 202.31 559.14 C 203.53 564.73 205.79 570.21 205.73 576.00 C 203.98 578.21 200.58 578.67 197.93 578.24 C 195.75 576.02 195.11 572.81 193.99 570.01 C 187.55 550.41 182.50 530.36 178.78 510.06 C 166.09 443.15 154.10 376.10 142.70 308.96 Z" />
<path fill="#000000" d=" M 181.43 262.91 C 182.66 263.55 183.91 264.17 185.15 264.80 C 186.39 269.96 187.56 275.15 188.88 280.30 C 188.03 280.47 186.34 280.80 185.49 280.97 C 184.09 274.96 182.74 268.94 181.43 262.91 Z" />
<path fill="#000000" d=" M 463.83 269.18 C 464.08 265.26 468.34 261.62 472.17 263.78 C 478.00 267.65 482.25 273.64 484.93 280.05 C 486.50 284.90 488.06 290.13 486.40 295.18 C 482.17 298.07 476.80 298.99 472.00 296.97 C 475.99 296.78 480.35 297.20 483.90 294.98 C 485.98 293.47 487.86 290.62 486.48 288.03 C 482.44 279.56 478.22 270.42 469.99 265.21 C 468.72 266.07 466.83 266.62 466.60 268.39 C 464.65 277.57 466.00 287.10 467.81 296.19 C 468.42 299.93 470.47 303.17 472.90 306.01 C 476.38 304.48 480.17 302.69 484.06 303.59 C 487.42 304.85 488.44 308.61 489.44 311.67 C 489.22 313.38 488.96 315.09 488.74 316.81 C 487.85 314.84 486.65 313.05 484.96 311.70 C 485.29 310.48 485.05 307.64 483.21 308.33 C 482.28 309.69 483.79 311.13 484.96 311.70 C 485.70 314.37 486.76 316.94 487.99 319.43 C 485.93 326.74 480.06 331.87 475.41 337.54 C 473.18 340.03 473.24 343.53 473.29 346.66 C 477.65 347.04 482.31 347.29 486.01 349.94 C 493.58 354.36 496.10 365.70 490.63 372.69 C 485.62 379.36 476.54 381.69 468.60 380.05 C 468.25 381.43 467.91 382.81 467.57 384.20 C 471.64 385.49 475.71 387.31 480.07 387.21 C 486.62 385.82 491.62 380.15 493.87 374.06 C 496.18 365.72 496.39 356.98 496.84 348.39 C 497.40 346.27 497.98 344.14 498.52 342.01 C 499.09 345.90 499.57 349.81 499.90 353.73 C 499.34 360.51 498.96 367.36 497.26 373.97 C 496.32 377.96 493.77 381.26 491.18 384.32 C 490.48 384.34 489.07 384.36 488.37 384.38 C 487.63 385.45 486.91 386.54 486.15 387.59 C 485.35 388.46 485.43 389.29 486.39 390.08 C 486.49 391.61 486.60 393.14 486.70 394.69 C 486.23 395.12 485.27 395.99 484.80 396.42 C 484.29 394.19 483.79 391.98 483.36 389.74 C 477.75 391.50 472.11 389.14 466.87 387.29 C 459.91 418.30 451.30 449.29 436.30 477.48 C 432.72 483.86 428.45 490.19 422.19 494.21 C 415.11 498.67 407.04 501.35 398.89 503.04 C 390.39 505.21 382.61 500.13 374.91 497.38 C 378.06 506.22 382.09 514.79 384.24 523.98 C 386.97 535.61 389.34 547.33 391.46 559.10 C 392.60 565.98 394.24 572.91 393.49 579.93 C 392.99 584.80 392.79 589.81 391.14 594.47 L 389.60 594.20 C 389.54 586.86 392.31 579.37 390.70 571.93 C 387.52 552.79 383.05 533.88 377.82 515.20 C 375.79 527.01 367.70 536.33 360.06 545.04 C 349.68 556.88 335.22 563.73 321.92 571.65 C 322.96 574.52 325.44 576.47 327.36 578.76 C 333.12 585.37 340.30 590.50 347.41 595.55 C 360.18 604.42 374.38 611.87 389.91 614.28 C 401.20 616.00 412.69 616.74 424.08 615.69 C 440.09 614.93 456.46 610.47 468.93 600.00 C 475.86 594.23 481.89 587.46 487.72 580.61 C 494.55 572.47 498.92 562.71 503.41 553.18 C 510.63 538.65 517.81 524.04 523.93 509.03 C 522.51 506.81 520.54 505.04 518.90 503.01 C 515.17 498.66 512.96 493.30 510.61 488.14 C 507.60 481.22 504.80 474.21 502.40 467.05 C 503.66 466.64 504.93 466.23 506.20 465.82 C 508.21 471.79 510.18 477.79 512.60 483.62 C 517.21 478.83 521.88 474.03 527.28 470.13 C 529.44 468.46 532.28 468.02 534.93 468.46 C 544.67 470.66 553.68 475.33 563.50 477.25 C 575.51 479.22 586.54 472.75 598.04 470.53 C 616.48 467.01 635.09 463.48 653.94 463.41 C 670.64 463.50 687.86 462.77 703.87 468.36 C 719.61 473.99 731.76 486.74 739.66 501.15 C 748.92 518.78 756.94 537.03 764.83 555.31 C 776.96 584.08 788.73 613.12 797.46 643.14 C 808.57 683.66 812.25 725.69 816.30 767.37 C 816.75 773.50 819.66 779.06 820.80 785.04 C 820.35 788.06 816.51 788.59 814.81 790.83 C 805.47 799.72 796.34 808.87 786.26 816.94 C 788.23 830.61 790.12 844.31 791.49 858.06 C 792.82 870.33 792.41 882.69 793.19 895.00 C 793.84 935.66 795.53 976.33 794.50 1017.00 C 794.51 1022.96 795.39 1028.98 794.42 1034.92 C 793.19 1041.99 788.64 1047.80 784.37 1053.34 C 778.21 1061.01 772.96 1069.35 767.43 1077.48 C 756.14 1094.11 744.92 1110.80 732.91 1126.92 C 710.25 1157.51 687.11 1187.76 665.34 1219.00 L 661.30 1219.00 C 667.00 1210.55 672.38 1201.87 678.67 1193.84 C 700.47 1165.55 722.64 1137.53 743.30 1108.40 C 754.68 1092.24 765.43 1075.66 776.05 1059.01 C 780.85 1051.45 787.47 1044.81 790.03 1036.03 C 792.20 1029.55 791.01 1022.66 791.39 1015.98 C 791.85 1003.65 792.70 991.33 792.33 978.99 C 791.32 947.65 790.42 916.31 788.89 885.00 C 788.14 863.18 786.23 841.42 783.40 819.78 C 774.30 826.47 765.98 834.22 756.58 840.55 C 738.09 853.92 716.55 862.04 695.17 869.50 C 689.20 871.44 683.24 873.49 677.11 874.85 C 673.62 875.69 670.15 874.42 666.81 873.58 C 658.58 871.53 650.42 869.22 642.20 867.14 C 651.69 907.12 661.33 947.06 670.85 987.03 C 676.09 981.16 681.60 975.19 684.68 967.85 C 686.27 962.39 686.19 956.57 685.64 950.96 C 685.21 949.42 685.87 948.09 687.02 947.08 C 689.18 952.50 688.68 958.54 688.00 964.22 C 687.16 971.76 682.17 977.81 677.74 983.62 C 674.23 987.80 671.01 992.32 666.73 995.78 C 658.33 1002.38 652.18 1011.26 645.71 1019.63 C 633.60 1035.64 625.29 1054.03 617.61 1072.45 C 602.80 1108.82 589.34 1145.73 577.43 1183.14 C 573.46 1195.10 569.45 1207.05 565.44 1219.00 L 562.44 1219.00 C 575.51 1182.06 586.88 1144.53 601.07 1107.99 C 608.94 1087.67 616.31 1067.14 624.85 1047.10 C 631.98 1029.54 644.30 1014.82 656.66 1000.72 C 659.69 997.03 663.76 994.43 667.10 991.06 C 668.64 989.81 667.46 987.75 667.35 986.16 C 657.48 946.03 647.39 905.95 637.58 865.81 C 624.34 862.31 611.10 858.77 597.97 854.90 C 593.72 853.81 590.16 850.58 588.65 846.49 C 587.59 843.70 588.99 840.90 590.27 838.48 C 593.55 832.64 594.36 825.87 596.16 819.51 C 602.72 794.54 606.75 768.82 607.30 742.99 C 607.76 736.38 603.77 730.80 601.27 725.02 C 598.85 719.51 595.58 714.45 593.14 708.96 C 596.47 713.97 599.03 719.45 602.26 724.54 C 604.18 727.47 605.32 730.98 607.97 733.39 C 609.49 719.48 609.36 705.47 609.89 691.51 C 610.43 691.52 611.51 691.53 612.05 691.54 C 612.89 698.02 611.63 704.50 611.68 710.99 C 611.40 729.35 610.78 747.71 609.14 766.01 C 607.72 782.65 603.56 798.87 599.79 815.10 C 597.41 823.52 596.25 832.40 592.26 840.29 C 590.36 843.62 591.53 848.12 594.50 850.44 C 596.28 851.92 598.60 852.48 600.78 853.16 C 616.69 857.66 632.78 861.45 648.85 865.31 C 656.33 867.28 664.16 868.24 671.13 871.79 C 674.48 873.56 678.17 872.11 681.54 871.23 C 696.66 866.73 711.52 861.29 725.99 854.99 C 739.01 849.41 751.06 841.78 762.35 833.27 C 779.04 820.14 794.96 806.00 809.64 790.64 C 811.93 788.14 814.35 785.68 817.50 784.30 C 815.36 778.67 812.88 773.02 812.44 766.95 C 810.84 749.59 809.31 732.22 807.14 714.92 C 803.42 685.50 798.78 655.96 789.03 627.85 C 776.69 591.49 761.73 556.05 745.53 521.24 C 740.11 510.41 735.50 498.85 727.09 489.90 C 716.42 477.17 700.23 470.14 684.00 468.13 C 669.72 466.37 655.29 465.90 640.93 466.61 C 627.86 467.55 614.87 469.48 601.99 471.86 C 589.51 474.17 578.07 481.45 565.07 480.79 C 568.32 482.93 571.57 485.06 574.80 487.22 C 574.40 487.31 573.59 487.49 573.19 487.57 C 567.73 484.79 562.24 482.05 556.75 479.34 C 549.69 476.50 542.39 474.23 534.97 472.50 C 531.24 471.56 528.17 474.27 525.48 476.40 C 521.57 479.79 517.32 482.98 514.15 487.08 C 516.40 493.81 519.83 500.38 525.22 505.14 C 526.40 504.63 526.60 503.25 527.17 502.25 C 530.32 494.45 534.44 486.93 535.78 478.53 C 536.74 478.55 537.70 478.58 538.67 478.62 C 538.15 486.47 534.30 493.46 531.35 500.58 C 523.97 517.36 516.62 534.18 508.28 550.51 C 504.09 558.87 500.60 567.62 495.45 575.46 C 489.96 583.76 483.05 591.03 476.01 598.02 C 465.50 608.42 451.63 615.20 437.03 617.44 C 417.76 620.47 397.72 620.17 378.83 615.04 C 366.23 611.28 354.68 604.64 343.99 597.08 C 332.37 589.32 322.36 579.30 314.31 567.92 C 314.00 563.43 318.16 567.05 319.13 569.09 C 324.89 566.67 330.62 564.06 335.88 560.68 C 344.85 555.40 353.69 549.42 360.16 541.14 C 368.27 532.00 375.25 520.80 375.15 508.18 C 373.97 503.82 372.00 499.71 370.41 495.49 C 346.90 484.99 322.56 475.14 302.44 458.67 C 288.44 447.39 276.76 433.62 265.18 419.96 C 264.29 418.09 264.31 416.04 264.88 414.09 C 279.04 432.73 294.24 451.17 313.62 464.62 C 337.47 478.90 363.45 489.16 389.46 498.76 C 393.69 500.51 398.27 499.26 402.48 498.14 C 409.19 496.20 415.92 493.75 421.54 489.50 C 428.26 484.22 432.47 476.57 436.38 469.14 C 440.83 460.26 444.77 451.11 448.43 441.88 C 455.05 423.51 459.77 404.53 464.34 385.57 C 468.64 366.68 472.13 347.11 469.36 327.73 C 469.14 325.10 467.96 322.13 469.99 319.89 C 472.25 324.35 471.66 329.52 472.65 334.30 C 474.88 329.55 476.58 324.33 476.49 319.04 C 475.18 312.18 469.90 307.13 466.71 301.18 C 463.45 290.92 462.52 279.85 463.83 269.18 Z" />
<path fill="#030303" d=" M 351.22 286.00 C 354.11 280.61 358.53 276.33 362.96 272.22 C 361.78 273.92 360.49 275.54 359.49 277.35 C 356.96 282.04 353.28 286.07 351.42 291.13 C 350.68 292.41 350.59 294.48 348.68 294.64 C 348.27 291.52 349.86 288.68 351.22 286.00 Z" />
<path fill="#000000" d=" M 489.27 273.40 C 490.04 273.04 491.56 272.32 492.32 271.96 C 498.89 291.53 499.06 312.49 500.27 332.90 C 499.80 333.38 498.87 334.34 498.40 334.82 C 497.89 332.74 497.35 330.67 496.84 328.60 C 496.36 316.05 495.44 303.49 493.60 291.06 C 492.64 285.08 491.76 278.97 489.27 273.40 Z" />
<path fill="#000000" d=" M 419.99 275.00 C 421.67 273.90 422.88 275.58 423.57 276.90 C 421.83 279.28 422.75 282.35 421.95 285.01 C 419.17 296.77 409.85 306.22 398.92 310.88 C 391.87 314.54 383.62 313.82 375.95 313.51 C 368.34 313.13 361.09 310.82 353.90 308.51 C 361.65 309.19 369.34 310.38 377.08 311.27 C 382.77 311.53 388.68 312.15 394.15 310.16 C 400.15 308.64 405.16 304.72 409.64 300.62 C 415.48 295.27 419.54 287.93 420.49 280.03 C 409.81 283.44 399.63 288.31 389.12 292.22 C 390.10 295.50 391.25 298.74 391.69 302.15 C 389.98 299.33 387.81 296.70 387.03 293.42 C 376.89 297.15 367.15 302.05 357.01 305.80 C 356.38 305.74 355.12 305.61 354.49 305.55 C 353.02 301.36 357.94 300.75 360.63 299.45 C 380.32 291.08 400.03 282.73 419.99 275.00 Z" />
<path fill="#151515" d=" M 256.01 288.20 C 264.18 285.88 272.47 282.44 281.14 283.49 C 289.05 284.65 296.83 287.92 302.54 293.63 C 302.04 293.71 301.06 293.87 300.56 293.95 C 291.86 286.90 279.94 283.07 268.93 286.33 C 248.63 291.85 228.84 299.27 209.68 307.92 C 215.83 307.42 221.79 305.77 227.82 304.58 C 244.43 301.03 261.36 299.34 278.13 296.76 C 284.79 295.86 291.46 294.86 298.18 294.60 C 298.39 294.76 298.82 295.07 299.04 295.23 C 298.84 295.42 298.43 295.80 298.22 296.00 C 267.85 299.61 237.64 304.53 207.38 308.90 C 204.47 309.72 201.62 310.75 198.67 311.46 C 198.98 312.11 199.60 313.40 199.90 314.04 C 199.17 312.97 198.41 311.90 197.97 310.67 C 199.56 310.72 201.16 310.48 202.58 309.71 C 219.67 300.90 237.76 294.18 256.01 288.20 Z" />
<path fill="#ffffff" d=" M 268.93 286.33 C 279.94 283.07 291.86 286.90 300.56 293.95 C 300.18 294.27 299.42 294.91 299.04 295.23 C 298.82 295.07 298.39 294.76 298.18 294.60 C 291.46 294.86 284.79 295.86 278.13 296.76 C 261.36 299.34 244.43 301.03 227.82 304.58 C 221.79 305.77 215.83 307.42 209.68 307.92 C 228.84 299.27 248.63 291.85 268.93 286.33 Z" />
<path fill="#434343" d=" M 423.75 288.86 C 424.30 287.90 424.44 286.51 425.66 286.13 C 423.71 292.81 419.98 299.30 414.01 303.13 C 417.29 298.41 421.49 294.25 423.75 288.86 Z" />
<path fill="#000000" d=" M 191.64 296.56 C 191.36 295.16 191.78 293.78 192.02 292.42 C 193.49 298.67 196.11 304.55 197.97 310.67 C 198.41 311.90 199.17 312.97 199.90 314.04 C 208.96 331.39 222.62 345.54 234.64 360.77 C 233.98 361.19 232.67 362.02 232.02 362.43 C 226.62 355.83 221.08 349.35 215.31 343.07 C 215.21 341.76 215.09 340.45 214.95 339.15 C 214.27 339.21 212.90 339.31 212.22 339.36 C 204.87 330.83 198.69 321.19 194.36 310.79 C 193.08 306.12 192.42 301.32 191.64 296.56 Z" />
<path fill="#030303" d=" M 302.54 293.63 C 302.80 293.98 303.34 294.69 303.60 295.04 C 301.95 295.85 300.00 295.69 298.22 296.00 C 298.43 295.80 298.84 295.42 299.04 295.23 C 299.42 294.91 300.18 294.27 300.56 293.95 C 301.06 293.87 302.04 293.71 302.54 293.63 Z" />
<path fill="#030303" d=" M 483.21 308.33 C 485.05 307.64 485.29 310.48 484.96 311.70 C 483.79 311.13 482.28 309.69 483.21 308.33 Z" />
<path fill="#030303" d=" M 275.91 309.52 C 281.59 309.46 287.36 309.62 292.82 311.39 C 296.05 312.48 299.58 313.66 301.74 316.46 C 298.57 317.43 295.93 314.50 292.91 313.92 C 287.24 312.45 281.65 310.67 275.91 309.52 Z" />
<path fill="#ffffff" d=" M 199.43 348.05 C 198.17 335.57 195.89 323.23 194.36 310.79 C 198.69 321.19 204.87 330.83 212.22 339.36 C 212.48 366.27 213.97 393.21 217.55 419.90 C 219.18 434.50 221.68 449.06 226.31 463.04 C 233.01 484.50 246.08 503.08 255.75 523.18 C 253.65 526.33 249.65 529.29 245.80 527.28 C 238.67 522.27 234.04 514.42 231.66 506.16 C 224.07 486.47 214.67 467.41 209.31 446.92 C 206.67 436.62 204.02 426.30 201.79 415.90 C 201.81 393.27 201.71 370.58 199.43 348.05 Z" />
<path fill="#030303" d=" M 484.96 311.70 C 486.65 313.05 487.85 314.84 488.74 316.81 C 488.96 315.09 489.22 313.38 489.44 311.67 C 490.55 315.44 491.13 319.34 491.38 323.25 C 490.70 322.40 490.05 321.54 489.41 320.67 L 489.26 319.15 L 487.99 319.43 C 486.76 316.94 485.70 314.37 484.96 311.70 Z" />
<path fill="#151515" d=" M 489.41 320.67 C 490.05 321.54 490.70 322.40 491.38 323.25 C 491.40 329.70 487.60 335.16 485.34 340.96 C 487.04 334.29 489.87 327.68 489.41 320.67 Z" />
<path fill="#000000" d=" M 234.86 349.86 C 256.81 341.70 278.90 333.90 301.09 326.44 C 303.47 325.23 305.86 328.87 303.42 330.31 C 293.25 334.08 282.92 337.40 272.68 340.98 C 273.61 344.25 274.65 347.51 274.54 350.97 C 273.03 348.00 271.44 345.06 270.35 341.90 C 259.77 345.32 249.49 349.59 238.94 353.11 C 239.74 355.33 242.06 356.26 243.90 357.44 C 252.67 362.47 263.37 362.57 273.03 360.56 C 283.77 357.75 291.06 348.86 297.95 340.78 C 300.74 337.07 304.27 334.01 306.89 330.16 C 302.64 339.48 296.04 347.53 288.47 354.36 C 284.64 357.35 280.88 360.77 276.04 361.98 C 266.09 365.51 254.72 365.55 245.13 360.89 C 240.59 358.89 237.26 355.11 233.45 352.10 C 233.80 351.54 234.50 350.42 234.86 349.86 Z" />
<path fill="#111725" d=" M 496.84 328.60 C 497.35 330.67 497.89 332.74 498.40 334.82 C 498.87 334.34 499.80 333.38 500.27 332.90 C 502.49 349.20 505.56 365.53 505.26 382.05 C 504.58 394.21 501.79 406.13 498.66 417.87 C 497.81 421.53 496.01 425.09 496.33 428.94 C 495.39 428.91 493.51 428.86 492.57 428.83 C 492.38 428.04 492.19 427.26 492.02 426.49 C 493.19 424.91 493.91 423.09 494.25 421.16 C 498.40 407.48 501.71 393.36 502.11 379.01 C 501.76 370.55 501.30 362.09 499.90 353.73 C 499.57 349.81 499.09 345.90 498.52 342.01 C 497.98 344.14 497.40 346.27 496.84 348.39 C 496.84 341.80 496.84 335.20 496.84 328.60 Z" />
<path fill="#0d0d0d" d=" M 308.46 330.34 C 312.22 332.26 314.07 336.32 315.89 339.91 C 320.13 349.37 322.17 359.67 323.40 369.91 C 323.67 375.50 324.81 381.18 323.60 386.73 L 322.98 387.07 L 321.92 387.58 C 321.53 367.96 319.63 347.11 308.46 330.34 Z" />
<path fill="#ffffff" d=" M 499.90 353.73 C 501.30 362.09 501.76 370.55 502.11 379.01 C 501.71 393.36 498.40 407.48 494.25 421.16 C 492.86 414.32 490.88 407.62 489.32 400.82 C 489.29 395.49 490.17 390.21 490.73 384.92 L 491.18 384.32 C 493.77 381.26 496.32 377.96 497.26 373.97 C 498.96 367.36 499.34 360.51 499.90 353.73 Z" />
<path fill="#111725" d=" M 234.64 360.77 C 235.37 361.66 236.05 362.59 236.70 363.55 C 236.34 365.56 236.56 367.60 237.25 369.53 C 237.29 372.06 237.30 374.60 237.61 377.12 C 240.68 402.49 245.11 427.69 250.63 452.63 C 256.09 477.25 264.37 501.14 273.70 524.54 C 277.14 532.94 280.45 541.44 284.66 549.50 C 286.08 552.73 290.85 553.40 293.46 551.32 C 297.11 547.19 297.55 541.01 295.67 535.98 C 290.48 519.95 284.32 504.21 280.07 487.88 C 273.96 465.70 268.21 443.41 262.35 421.16 C 261.55 418.23 260.88 415.25 259.76 412.42 C 260.43 412.03 261.76 411.23 262.43 410.83 C 263.24 411.91 264.06 413.00 264.88 414.09 C 264.31 416.04 264.29 418.09 265.18 419.96 C 272.40 446.20 278.79 472.69 286.47 498.81 C 290.36 511.70 295.41 524.21 299.24 537.11 C 300.91 542.11 299.63 547.66 296.92 552.04 C 293.50 557.49 283.83 556.52 281.59 550.46 C 274.36 535.70 268.57 520.29 262.88 504.90 C 255.30 484.37 249.39 463.24 245.07 441.79 C 240.10 417.03 235.83 392.09 233.39 366.94 C 233.31 365.34 232.91 363.77 232.02 362.43 C 232.67 362.02 233.98 361.19 234.64 360.77 Z" />
<path fill="#434343" d=" M 238.91 361.11 C 244.92 364.35 251.80 364.94 258.24 366.57 C 251.55 367.26 243.93 365.79 238.91 361.11 Z" />
<path fill="#010101" d=" M 237.25 369.53 C 236.56 367.60 236.34 365.56 236.70 363.55 C 243.34 372.11 245.47 382.99 250.87 392.24 C 254.42 398.61 258.01 405.00 262.43 410.83 C 261.76 411.23 260.43 412.03 259.76 412.42 C 250.84 398.90 244.64 383.88 237.25 369.53 Z" />
<path fill="#ffffff" d=" M 237.61 377.12 C 237.30 374.60 237.29 372.06 237.25 369.53 C 244.64 383.88 250.84 398.90 259.76 412.42 C 260.88 415.25 261.55 418.23 262.35 421.16 C 268.21 443.41 273.96 465.70 280.07 487.88 C 284.32 504.21 290.48 519.95 295.67 535.98 C 297.55 541.01 297.11 547.19 293.46 551.32 C 290.85 553.40 286.08 552.73 284.66 549.50 C 280.45 541.44 277.14 532.94 273.70 524.54 C 264.37 501.14 256.09 477.25 250.63 452.63 C 245.11 427.69 240.68 402.49 237.61 377.12 Z" />
<path fill="#111725" d=" M 488.37 384.38 C 489.07 384.36 490.48 384.34 491.18 384.32 L 490.73 384.92 C 490.17 390.21 489.29 395.49 489.32 400.82 C 488.25 401.20 487.18 401.58 486.12 401.96 C 485.66 400.11 485.22 398.27 484.80 396.42 C 485.27 395.99 486.23 395.12 486.70 394.69 C 486.60 393.14 486.49 391.61 486.39 390.08 C 486.66 389.76 487.21 389.11 487.49 388.79 C 487.15 388.49 486.48 387.89 486.15 387.59 C 486.91 386.54 487.63 385.45 488.37 384.38 Z" />
<path fill="#030303" d=" M 322.98 387.07 C 324.12 387.44 324.94 388.36 325.86 389.08 C 334.00 396.19 343.42 401.73 350.87 409.63 C 346.99 407.37 342.85 405.53 339.27 402.77 C 333.15 398.18 326.71 393.77 321.82 387.80 L 322.98 387.07 Z" />
<path fill="#ffffff" d=" M 466.87 387.29 C 472.11 389.14 477.75 391.50 483.36 389.74 C 483.79 391.98 484.29 394.19 484.80 396.42 C 485.22 398.27 485.66 400.11 486.12 401.96 C 488.10 410.14 490.04 418.31 492.02 426.49 C 492.19 427.26 492.38 428.04 492.57 428.83 C 495.60 441.07 498.54 453.34 501.94 465.49 C 502.05 465.88 502.29 466.66 502.40 467.05 C 504.80 474.21 507.60 481.22 510.61 488.14 C 512.96 493.30 515.17 498.66 518.90 503.01 C 520.54 505.04 522.51 506.81 523.93 509.03 C 517.81 524.04 510.63 538.65 503.41 553.18 C 498.92 562.71 494.55 572.47 487.72 580.61 C 481.89 587.46 475.86 594.23 468.93 600.00 C 456.46 610.47 440.09 614.93 424.08 615.69 C 412.69 616.74 401.20 616.00 389.91 614.28 C 374.38 611.87 360.18 604.42 347.41 595.55 C 340.30 590.50 333.12 585.37 327.36 578.76 C 325.44 576.47 322.96 574.52 321.92 571.65 C 335.22 563.73 349.68 556.88 360.06 545.04 C 367.70 536.33 375.79 527.01 377.82 515.20 C 383.05 533.88 387.52 552.79 390.70 571.93 C 392.31 579.37 389.54 586.86 389.60 594.20 L 391.14 594.47 C 392.79 589.81 392.99 584.80 393.49 579.93 C 394.24 572.91 392.60 565.98 391.46 559.10 C 389.34 547.33 386.97 535.61 384.24 523.98 C 382.09 514.79 378.06 506.22 374.91 497.38 C 382.61 500.13 390.39 505.21 398.89 503.04 C 407.04 501.35 415.11 498.67 422.19 494.21 C 428.45 490.19 432.72 483.86 436.30 477.48 C 451.30 449.29 459.91 418.30 466.87 387.29 Z" />
<path fill="#e9e9eb" d=" M 486.39 390.08 C 485.43 389.29 485.35 388.46 486.15 387.59 C 486.48 387.89 487.15 388.49 487.49 388.79 C 487.21 389.11 486.66 389.76 486.39 390.08 Z" />
<path fill="#010101" d=" M 486.12 401.96 C 487.18 401.58 488.25 401.20 489.32 400.82 C 490.88 407.62 492.86 414.32 494.25 421.16 C 493.91 423.09 493.19 424.91 492.02 426.49 C 490.04 418.31 488.10 410.14 486.12 401.96 Z" />
<path fill="#000000" d=" M 396.22 401.86 C 398.64 400.68 401.71 401.61 402.92 404.03 C 405.86 409.64 405.72 416.50 403.56 422.35 C 401.41 428.00 396.03 431.34 390.93 434.01 C 382.84 438.30 373.35 439.73 364.34 438.18 C 362.40 444.22 356.52 449.40 349.86 448.24 C 343.41 447.19 336.29 445.49 332.07 440.06 C 330.58 438.04 328.82 435.43 329.83 432.83 L 331.24 432.58 C 332.47 434.73 333.10 437.30 334.96 439.05 C 338.84 443.18 344.70 444.36 350.05 445.29 C 356.24 446.43 361.78 440.51 361.82 434.58 C 363.94 433.51 365.82 435.46 367.89 435.65 C 378.28 436.68 388.83 433.09 396.89 426.58 C 402.89 421.33 403.42 411.84 400.10 404.98 C 398.65 404.14 397.16 403.29 396.22 401.86 Z" />
<path fill="#000000" d=" M 492.57 428.83 C 493.51 428.86 495.39 428.91 496.33 428.94 C 499.14 439.19 501.43 449.58 504.66 459.72 C 504.11 461.79 503.18 463.75 501.94 465.49 C 498.54 453.34 495.60 441.07 492.57 428.83 Z" />
<path fill="#ffffff" d=" M 182.56 435.21 C 184.05 440.39 185.90 445.45 187.59 450.57 C 189.49 455.22 187.60 460.24 187.45 465.04 C 185.60 455.14 184.12 445.17 182.56 435.21 Z" />
<path fill="#ffffff" d=" M 146.53 519.36 C 155.37 504.28 160.68 487.48 168.28 471.85 C 169.79 479.57 171.23 487.31 172.59 495.07 C 168.63 501.04 165.38 507.45 161.62 513.55 C 158.25 518.91 155.44 525.06 149.94 528.61 C 145.41 528.86 144.00 522.44 146.53 519.36 Z" />
<path fill="#060606" d=" M 643.49 495.35 C 646.29 488.26 649.13 481.19 651.57 473.98 C 649.00 486.61 644.34 498.69 640.67 511.03 C 633.54 533.26 628.71 556.12 623.62 578.87 C 620.88 591.09 619.38 603.53 617.62 615.91 C 616.55 624.29 615.12 632.64 614.53 641.07 C 614.03 652.63 612.46 664.12 612.33 675.70 C 612.18 675.68 611.88 675.65 611.72 675.63 C 612.04 663.75 611.41 651.87 611.76 640.00 C 612.80 627.57 614.87 615.27 616.45 602.91 C 618.81 583.69 623.79 564.93 628.17 546.11 C 632.15 528.87 637.53 512.00 643.49 495.35 Z" />
<path fill="#000000" d=" M 563.63 496.14 C 564.85 496.20 565.97 496.52 566.47 497.78 C 559.55 518.58 553.11 539.67 543.55 559.45 C 536.09 574.51 529.46 590.35 518.14 603.02 C 506.22 616.44 492.12 628.12 476.11 636.32 C 458.68 645.08 439.59 650.55 420.13 652.07 C 400.47 653.51 380.25 652.61 361.44 646.29 C 346.91 640.83 333.52 632.37 322.14 621.82 C 314.20 614.45 306.60 606.69 299.38 598.61 C 298.03 597.08 296.12 595.68 296.39 593.40 C 297.62 593.40 299.10 592.92 299.81 594.33 C 308.62 604.10 317.77 613.58 327.57 622.37 C 335.89 629.73 345.48 635.54 355.45 640.38 C 372.17 648.00 390.92 649.69 409.09 649.43 C 431.19 649.13 453.23 644.01 473.07 634.24 C 489.24 626.34 503.32 614.66 515.37 601.39 C 527.15 588.14 533.92 571.56 541.70 555.87 C 550.72 536.63 556.95 516.26 563.63 496.14 Z" />
<path fill="#000000" d=" M 313.64 553.75 C 315.32 551.58 318.53 552.00 320.57 553.42 C 324.31 555.75 327.89 558.41 331.12 561.42 C 331.03 561.77 330.84 562.48 330.74 562.83 C 330.41 563.06 329.74 563.50 329.41 563.72 C 325.18 560.99 321.64 557.07 316.84 555.30 C 312.50 559.85 308.95 565.12 304.94 569.97 C 301.28 574.28 298.21 579.49 293.02 582.15 C 263.50 596.97 233.38 610.79 205.20 628.11 C 189.35 637.78 173.87 648.06 158.48 658.45 C 149.54 664.55 138.73 668.05 131.19 676.08 C 126.90 680.76 124.73 686.87 123.34 692.96 C 121.66 700.12 119.06 707.01 116.98 714.05 C 111.62 731.80 106.35 749.59 100.44 767.17 C 86.76 806.96 71.84 846.45 52.55 883.91 C 47.10 895.03 40.76 905.74 35.33 916.83 C 37.11 920.55 39.49 923.95 41.70 927.43 C 47.72 936.00 53.34 944.89 60.29 952.76 C 68.22 962.35 78.83 969.14 89.21 975.76 C 104.00 984.82 119.80 992.42 136.53 997.15 C 153.34 1001.72 170.61 1004.46 187.93 1006.27 C 191.79 1006.51 195.71 1007.08 199.56 1006.49 C 202.17 1004.91 203.41 1001.65 206.19 1000.25 C 207.71 999.50 209.41 999.23 211.06 998.96 C 220.48 997.87 230.04 997.99 239.38 996.24 C 247.04 994.49 254.37 991.58 261.77 988.99 C 247.69 955.04 232.85 921.40 218.11 887.73 C 208.96 867.43 200.62 846.60 188.32 827.93 C 186.47 826.41 186.14 823.90 184.87 821.99 C 183.25 818.94 180.37 816.40 180.14 812.79 C 186.19 819.29 190.34 827.31 195.38 834.59 C 205.42 849.43 211.97 866.18 219.48 882.36 C 234.63 916.15 249.55 950.05 264.23 984.05 C 274.23 1006.96 282.59 1030.54 291.40 1053.93 C 292.90 1051.85 293.32 1047.79 296.73 1048.18 C 293.81 1056.90 289.37 1065.26 283.19 1072.13 C 280.99 1074.81 278.45 1078.26 279.93 1081.92 C 282.53 1088.06 287.48 1092.90 290.29 1098.95 C 291.18 1104.93 287.50 1110.36 285.63 1115.84 C 272.17 1148.61 257.21 1180.74 243.59 1213.45 C 242.49 1215.36 243.31 1217.40 244.58 1219.00 L 240.93 1219.00 C 228.97 1200.72 216.98 1182.45 204.25 1164.70 C 193.46 1148.79 179.33 1135.51 164.50 1123.44 C 155.99 1116.71 147.10 1110.22 137.05 1105.98 C 125.79 1101.07 113.83 1097.92 101.73 1095.99 C 101.72 1094.89 101.72 1093.80 101.72 1092.73 C 109.88 1093.78 117.75 1096.26 125.77 1097.94 C 139.91 1067.77 154.06 1037.61 168.64 1007.64 C 151.49 1004.54 134.18 1001.15 118.19 993.97 C 97.13 984.63 77.52 971.94 60.51 956.40 C 57.17 953.33 54.48 949.63 51.07 946.63 C 42.79 976.51 35.22 1006.60 28.41 1036.85 C 21.78 1065.76 17.61 1095.15 13.89 1124.55 C 13.01 1131.67 12.29 1138.82 11.78 1145.98 C 11.31 1156.22 15.68 1165.84 20.05 1174.84 C 24.32 1183.28 32.35 1188.66 39.76 1194.08 C 50.99 1202.65 62.58 1210.72 74.03 1219.00 L 69.11 1219.00 C 61.37 1213.09 53.57 1207.25 45.82 1201.36 C 38.88 1196.15 31.16 1192.04 24.55 1186.41 C 18.19 1180.71 15.38 1172.43 12.04 1164.84 C 9.39 1158.58 7.73 1151.79 8.36 1144.96 C 9.23 1133.08 11.14 1121.30 12.83 1109.52 C 18.87 1071.15 25.68 1032.88 34.66 995.08 C 38.48 977.50 43.81 960.32 48.73 943.03 C 42.64 935.96 37.54 928.11 33.16 919.88 C 32.31 918.03 30.37 915.85 31.80 913.81 C 40.75 898.55 49.52 883.18 57.68 867.48 C 65.86 851.93 72.17 835.49 78.41 819.09 C 85.39 800.28 91.95 781.30 98.18 762.23 C 105.07 740.90 110.76 719.21 117.57 697.85 C 119.67 690.28 121.01 682.19 125.88 675.76 C 132.14 666.70 142.60 662.31 151.61 656.61 C 173.30 642.70 195.13 628.94 217.78 616.62 C 239.79 604.63 262.49 593.99 285.09 583.17 C 289.16 581.09 293.53 579.11 296.47 575.46 C 302.35 568.34 307.62 560.74 313.64 553.75 Z" />
<path fill="#272727" d=" M 672.35 582.95 C 675.64 590.37 677.59 598.33 679.98 606.07 C 681.64 614.79 682.03 623.70 683.07 632.51 C 685.25 654.62 687.52 676.77 687.37 699.00 C 687.59 724.76 685.46 750.45 684.57 776.17 C 683.75 768.16 684.39 760.02 684.39 751.96 C 684.96 727.32 686.30 702.65 685.10 678.00 C 684.31 659.95 682.54 641.96 681.09 623.96 C 680.18 616.61 680.42 609.03 678.05 601.92 C 676.12 595.61 674.42 589.22 672.35 582.95 Z" />
<path fill="#434343" d=" M 135.71 717.99 C 136.56 717.39 137.42 716.82 138.28 716.25 C 137.99 716.72 137.40 717.66 137.11 718.12 C 143.94 722.41 148.61 729.14 153.50 735.38 C 160.29 744.07 165.54 753.80 170.83 763.45 C 174.76 770.49 177.57 778.09 179.71 785.85 C 167.35 778.06 155.92 768.74 144.09 760.13 C 147.39 760.95 149.86 763.49 152.84 765.01 C 161.25 769.73 168.84 775.70 176.69 781.24 C 166.23 758.36 153.78 735.80 135.71 717.99 Z" />
<path fill="#434343" d=" M 683.23 787.01 C 683.56 783.47 682.98 779.85 683.97 776.40 C 684.94 782.24 683.56 788.16 683.55 794.04 C 683.33 809.04 681.59 823.96 681.45 838.96 C 681.01 830.64 681.83 822.34 681.89 814.03 C 682.87 805.05 682.26 795.98 683.23 787.01 Z" />
<path fill="#ffffff" d=" M 756.58 840.55 C 765.98 834.22 774.30 826.47 783.40 819.78 C 786.23 841.42 788.14 863.18 788.89 885.00 C 790.42 916.31 791.32 947.65 792.33 978.99 C 792.70 991.33 791.85 1003.65 791.39 1015.98 C 791.01 1022.66 792.20 1029.55 790.03 1036.03 C 787.47 1044.81 780.85 1051.45 776.05 1059.01 C 765.43 1075.66 754.68 1092.24 743.30 1108.40 C 722.64 1137.53 700.47 1165.55 678.67 1193.84 C 672.38 1201.87 667.00 1210.55 661.30 1219.00 L 565.44 1219.00 C 569.45 1207.05 573.46 1195.10 577.43 1183.14 C 589.34 1145.73 602.80 1108.82 617.61 1072.45 C 625.29 1054.03 633.60 1035.64 645.71 1019.63 C 652.18 1011.26 658.33 1002.38 666.73 995.78 C 671.01 992.32 674.23 987.80 677.74 983.62 C 682.17 977.81 687.16 971.76 688.00 964.22 C 688.68 958.54 689.18 952.50 687.02 947.08 C 685.87 948.09 685.21 949.42 685.64 950.96 C 686.19 956.57 686.27 962.39 684.68 967.85 C 681.60 975.19 676.09 981.16 670.85 987.03 C 661.33 947.06 651.69 907.12 642.20 867.14 C 650.42 869.22 658.58 871.53 666.81 873.58 C 670.15 874.42 673.62 875.69 677.11 874.85 C 683.24 873.49 689.20 871.44 695.17 869.50 C 716.55 862.04 738.09 853.92 756.58 840.55 Z" />
<path fill="#181818" d=" M 195.09 945.27 C 189.87 906.02 187.73 866.43 186.45 826.90 C 186.59 828.16 186.71 829.42 186.83 830.70 C 187.01 830.93 187.37 831.39 187.55 831.62 C 188.79 841.00 189.19 850.46 189.65 859.91 C 192.37 905.50 196.23 951.10 201.02 996.45 C 200.98 996.54 200.91 996.71 200.87 996.79 C 198.52 979.67 197.02 962.44 195.09 945.27 Z" />
<path fill="#ffffff" d=" M 28.41 1036.85 C 35.22 1006.60 42.79 976.51 51.07 946.63 C 54.48 949.63 57.17 953.33 60.51 956.40 C 77.52 971.94 97.13 984.63 118.19 993.97 C 134.18 1001.15 151.49 1004.54 168.64 1007.64 C 154.06 1037.61 139.91 1067.77 125.77 1097.94 C 117.75 1096.26 109.88 1093.78 101.72 1092.73 C 101.72 1093.80 101.72 1094.89 101.73 1095.99 C 113.83 1097.92 125.79 1101.07 137.05 1105.98 C 147.10 1110.22 155.99 1116.71 164.50 1123.44 C 179.33 1135.51 193.46 1148.79 204.25 1164.70 C 216.98 1182.45 228.97 1200.72 240.93 1219.00 L 74.03 1219.00 C 62.58 1210.72 50.99 1202.65 39.76 1194.08 C 32.35 1188.66 24.32 1183.28 20.05 1174.84 C 15.68 1165.84 11.31 1156.22 11.78 1145.98 C 12.29 1138.82 13.01 1131.67 13.89 1124.55 C 17.61 1095.15 21.78 1065.76 28.41 1036.85 Z" />
<path fill="#010101" d=" M 504.67 968.71 C 511.95 964.45 518.77 959.47 525.94 955.04 C 508.79 967.36 491.94 980.28 473.52 990.71 C 451.10 1002.84 427.53 1012.73 403.54 1021.32 C 380.26 1029.71 356.53 1037.11 332.10 1041.32 C 327.40 1041.81 322.72 1042.63 317.99 1042.71 C 316.89 1043.09 315.39 1041.64 316.78 1040.94 C 332.23 1040.07 347.19 1035.73 362.11 1031.93 C 397.70 1021.31 432.70 1008.34 465.88 991.59 C 479.36 984.93 491.89 976.58 504.67 968.71 Z" />
<path fill="#ffffff" d=" M 242.44 997.55 C 249.45 996.08 256.23 993.73 263.13 991.86 C 272.38 1013.67 281.04 1035.74 289.34 1057.94 C 287.02 1062.53 283.71 1066.45 280.09 1070.06 C 277.18 1073.25 274.20 1077.52 275.79 1082.04 C 278.32 1088.85 285.52 1092.74 287.43 1099.93 C 287.68 1102.54 286.43 1104.99 285.62 1107.42 C 276.84 1129.79 266.50 1151.50 256.68 1173.42 C 251.14 1185.80 245.03 1197.97 240.98 1210.95 C 240.88 1212.84 239.01 1211.17 238.80 1210.37 C 228.04 1194.17 217.06 1178.11 205.56 1162.43 C 192.92 1144.96 177.58 1129.54 160.76 1116.10 C 151.43 1108.39 140.37 1103.11 128.92 1099.40 C 131.70 1091.71 135.94 1084.62 139.28 1077.16 C 150.42 1054.27 161.34 1031.29 171.89 1008.13 C 180.94 1009.12 189.97 1010.98 199.11 1010.72 C 203.09 1010.46 204.37 1006.16 206.34 1003.42 C 207.49 1001.38 209.96 1001.33 211.98 1000.98 C 222.13 999.80 232.45 999.87 242.44 997.55 Z" />
<path fill="#010101" d=" M 494.91 1061.70 C 515.11 1057.51 535.37 1053.56 555.42 1048.66 C 555.44 1048.77 555.47 1048.98 555.49 1049.08 C 531.28 1054.72 507.24 1061.08 483.04 1066.77 C 445.03 1074.90 406.88 1083.24 368.05 1086.30 C 355.39 1086.81 342.60 1088.20 330.04 1085.90 C 323.48 1084.56 316.35 1081.13 314.25 1074.23 C 320.40 1081.89 330.54 1084.32 339.94 1084.40 C 363.49 1084.80 386.94 1081.84 410.17 1078.23 C 438.55 1073.45 466.70 1067.40 494.91 1061.70 Z" />
</svg>
